<?xml version="1.0" standalone="no"?><!-- Generator: Gravit.io --><svg xmlns="http://www.w3.org/2000/svg" xmlns:xlink="http://www.w3.org/1999/xlink" style="isolation:isolate" viewBox="0 0 512 512" width="512" height="512"><g><path d=" M 243.647 106.543 C 252.923 121.848 221.645 184.663 191.933 194.664 C 184.803 214.665 194.139 240.553 193.325 263.77 C 192.397 290.206 185.136 310.738 185.136 323.261 C 238.878 328.951 229.617 345.05 291.882 352.007 C 262.662 393.053 208.183 396.513 156.221 397.807 C 95.696 399.314 67.712 393.236 63.925 382.966 C 30.068 291.134 115.552 230.724 114.711 191.417 C 96.159 178.431 76.86 127.369 83.527 108.63 C 97.527 106.035 116.194 130.702 129.785 134.138 C 125.842 121.848 122.944 82.773 131.002 74.946 C 145.786 76.396 152.41 101.209 167.194 111.992 C 186.61 105.535 204.735 110.66 224.863 108.63 C 232.027 107.907 240.449 101.266 243.647 106.543 Z " fill="rgb(232,134,7)"/><path d=" M 190.36 200.854 C 164.423 217.582 196.626 256.957 186.735 309.229 C 201.86 249.354 185.11 230.729 190.36 200.854 Z " fill="rgb(255,255,255)"/><path d=" M 226.298 333.292 C 215.985 338.354 215.61 385.604 224.985 391.792 C 246.173 386.354 271.86 379.604 291.735 352.042 C 248.235 346.417 239.048 338.167 226.298 333.292 Z " fill="rgb(255,255,255)"/><path d=" M 191.985 194.823 C 189.02 195.783 185.985 197.073 181.875 197.501 C 167.816 184.065 214.659 162.035 244.748 120.279 C 235.579 159.854 208.204 189.573 191.985 194.823 Z " fill="rgb(255,255,255)"/><path d=" M 111.7 192.915 C 111 192.375 110.33 191.805 109.68 191.215 C 108.57 190.185 107.5 189.115 106.49 187.985 C 104.27 185.495 102.23 182.865 100.39 180.095 C 98.35 177.055 96.47 173.915 94.75 170.685 C 92.92 167.275 91.24 163.795 89.7 160.245 C 88.13 156.645 86.71 152.985 85.42 149.275 C 84.17 145.655 83.06 141.985 82.11 138.275 C 81.21 134.795 80.49 131.275 79.96 127.725 C 79.46 124.535 79.2 121.315 79.18 118.085 C 79.17 116.235 79.29 114.395 79.53 112.555 C 79.83 110.335 80.41 108.165 81.29 106.095 C 82.7 105.655 84.18 105.435 85.66 105.435 C 86.84 105.445 88.02 105.575 89.18 105.815 C 90.36 106.065 91.51 106.395 92.64 106.825 C 94.98 107.725 97.24 108.855 99.37 110.195 C 101.64 111.605 103.84 113.115 105.98 114.725 C 108.16 116.365 110.32 118.035 112.46 119.735 C 114.12 121.055 115.79 122.355 117.48 123.645 C 119.04 124.845 120.64 125.995 122.27 127.095 C 123.3 127.795 124.36 128.445 125.44 129.055 C 125.4 128.855 125.37 128.655 125.33 128.455 C 124.81 125.665 124.39 122.845 124.06 120.015 C 123.27 113.505 122.88 106.935 122.87 100.375 C 122.86 97.555 122.96 94.735 123.15 91.925 C 123.32 89.345 123.63 86.785 124.07 84.245 C 124.28 83.105 124.53 81.965 124.83 80.835 C 125.1 79.805 125.43 78.775 125.82 77.775 C 126.18 76.845 126.61 75.955 127.12 75.095 C 127.86 73.845 128.82 72.755 129.97 71.875 C 132.96 71.965 135.88 72.805 138.45 74.325 C 139.52 74.955 140.55 75.665 141.51 76.455 C 142.49 77.265 143.42 78.125 144.3 79.045 C 146.12 80.955 147.8 82.995 149.34 85.135 C 150.95 87.355 152.51 89.605 154.03 91.885 C 155.17 93.575 156.32 95.255 157.49 96.925 C 158.64 98.565 159.84 100.165 161.08 101.725 C 162.27 103.225 163.54 104.665 164.89 106.025 C 165.8 106.965 166.77 107.835 167.78 108.655 C 171.47 107.545 175.24 106.755 179.06 106.285 C 183.19 105.795 187.34 105.565 191.5 105.595 C 195.18 105.615 198.86 105.715 202.54 105.865 C 206.26 106.025 209.98 106.115 213.7 106.145 C 217.32 106.155 220.94 105.995 224.55 105.645 C 225.66 105.515 226.76 105.275 227.83 104.935 C 229.09 104.535 230.33 104.105 231.57 103.635 C 232.9 103.125 234.25 102.655 235.61 102.235 C 236.3 102.035 236.99 101.865 237.69 101.735 C 238.39 101.605 239.11 101.525 239.82 101.525 C 241.05 101.495 242.26 101.765 243.36 102.295 C 244.56 102.915 245.56 103.865 246.24 105.035 C 247 106.345 247.55 107.775 247.84 109.265 C 248.17 110.855 248.32 112.485 248.31 114.115 C 248.3 115.745 248.19 117.365 247.97 118.975 C 247.73 120.755 247.41 122.525 247.01 124.275 C 246.08 128.235 244.89 132.125 243.44 135.925 C 241.84 140.175 240.01 144.345 237.98 148.415 C 235.84 152.725 233.49 156.935 230.95 161.035 C 228.4 165.165 225.63 169.165 222.66 173.025 C 219.81 176.755 216.71 180.295 213.4 183.625 C 211.83 185.205 210.19 186.715 208.49 188.165 C 206.87 189.545 205.18 190.845 203.43 192.065 C 201.76 193.215 200.02 194.275 198.23 195.215 C 196.96 195.875 195.66 196.475 194.32 196.985 C 193.63 199.205 193.12 201.475 192.81 203.785 C 192.41 206.715 192.22 209.675 192.23 212.625 C 192.26 216.425 192.46 220.215 192.85 223.995 C 193.26 227.975 193.73 231.945 194.25 235.905 C 194.8 240.035 195.28 244.175 195.7 248.315 C 196.13 252.465 196.35 256.625 196.38 260.785 C 196.38 261.815 196.36 262.845 196.32 263.875 C 196.05 271.045 195.36 278.195 194.28 285.275 C 193.8 288.445 193.27 291.595 192.69 294.745 C 192.16 297.605 191.61 300.465 191.04 303.325 C 190.28 307.055 189.59 310.785 188.97 314.535 C 188.72 316.095 188.52 317.665 188.36 319.235 C 188.31 319.685 188.27 320.135 188.24 320.585 C 193.08 321.145 197.89 321.885 202.67 322.805 C 207.12 323.655 211.52 324.755 215.86 326.075 C 219.41 327.165 222.9 328.435 226.33 329.865 C 229.38 331.145 232.4 332.495 235.39 333.895 C 238.59 335.385 241.81 336.815 245.06 338.175 C 248.81 339.715 252.63 341.075 256.51 342.255 C 261.48 343.745 266.52 344.975 271.62 345.955 C 280.07 347.565 288.59 348.755 297.16 349.505 C 292.89 356.305 287.73 362.495 281.82 367.915 C 277.32 372.035 272.43 375.695 267.22 378.865 C 262.02 382.015 256.57 384.725 250.93 386.985 C 245.19 389.275 239.31 391.185 233.32 392.725 C 227.19 394.295 220.99 395.565 214.74 396.535 C 208.35 397.525 201.93 398.305 195.49 398.865 C 188.97 399.435 182.44 399.865 175.9 400.145 C 169.37 400.435 162.83 400.655 156.29 400.805 C 150.45 400.955 144.61 401.035 138.76 401.035 C 133.06 401.045 127.36 400.955 121.66 400.765 C 116.72 400.605 111.79 400.345 106.86 399.965 C 102.65 399.655 98.46 399.225 94.27 398.675 C 90.77 398.215 87.28 397.625 83.82 396.895 C 80.96 396.305 78.15 395.555 75.38 394.635 C 73.12 393.905 70.93 392.975 68.83 391.865 C 67.08 390.955 65.47 389.795 64.05 388.425 C 62.76 387.195 61.76 385.695 61.12 384.035 C 58.39 376.665 56.31 369.075 54.9 361.345 C 53.63 354.275 52.99 347.105 52.99 339.915 C 53.02 330.025 54.2 320.165 56.53 310.545 C 57.63 305.935 58.96 301.375 60.5 296.895 C 62.01 292.505 63.7 288.175 65.55 283.925 C 67.36 279.765 69.31 275.655 71.38 271.615 C 73.4 267.685 75.5 263.795 77.7 259.955 C 79.81 256.245 81.99 252.565 84.21 248.925 C 86.34 245.435 88.48 241.965 90.64 238.495 C 93.44 234.035 96.19 229.545 98.89 225.015 C 101.3 221.005 103.55 216.905 105.63 212.715 C 106.55 210.855 107.41 208.955 108.2 207.035 C 108.93 205.275 109.57 203.485 110.12 201.675 C 110.63 200.025 111.02 198.345 111.31 196.645 C 111.52 195.415 111.65 194.165 111.7 192.915 Z  M 85.83 111.445 C 86.54 111.455 87.25 111.535 87.94 111.685 C 88.81 111.865 89.67 112.115 90.5 112.425 C 92.48 113.195 94.39 114.155 96.2 115.285 C 98.32 116.605 100.38 118.015 102.37 119.515 C 104.51 121.125 106.63 122.765 108.72 124.435 C 110.42 125.775 112.12 127.095 113.83 128.415 C 115.49 129.675 117.18 130.895 118.91 132.065 C 120.52 133.165 122.2 134.165 123.94 135.055 C 127.15 136.745 130.7 137.695 134.32 137.855 C 132.91 134.485 131.87 130.975 131.24 127.385 C 130.74 124.705 130.33 122.015 130.02 119.315 C 129.26 113.025 128.88 106.695 128.87 100.365 C 128.86 97.685 128.95 94.995 129.14 92.325 C 129.29 89.965 129.57 87.615 129.98 85.295 C 130.16 84.305 130.37 83.335 130.63 82.365 C 130.84 81.545 131.11 80.735 131.41 79.945 C 131.65 79.345 131.93 78.765 132.25 78.205 C 133.36 78.485 134.42 78.915 135.41 79.495 C 136.21 79.965 136.98 80.505 137.7 81.095 C 138.49 81.745 139.25 82.445 139.96 83.185 C 141.59 84.905 143.09 86.725 144.47 88.645 C 146.04 90.805 147.57 92.995 149.05 95.225 C 150.21 96.945 151.39 98.665 152.58 100.365 C 153.8 102.105 155.07 103.805 156.38 105.465 C 157.71 107.125 159.12 108.725 160.61 110.235 C 162.47 112.135 164.52 113.835 166.71 115.325 C 170.94 113.825 175.32 112.785 179.77 112.245 C 183.65 111.785 187.55 111.565 191.46 111.595 C 195.07 111.615 198.68 111.705 202.28 111.865 C 206.08 112.025 209.87 112.115 213.67 112.145 C 217.51 112.155 221.35 111.985 225.18 111.615 C 226.7 111.435 228.19 111.115 229.65 110.645 C 231.02 110.215 232.37 109.745 233.71 109.235 C 234.91 108.775 236.12 108.355 237.35 107.985 C 237.83 107.835 238.31 107.725 238.8 107.635 C 239.17 107.555 239.55 107.525 239.93 107.525 C 240.18 107.515 240.43 107.555 240.67 107.655 C 240.83 107.755 240.96 107.895 241.05 108.055 C 241.49 108.795 241.79 109.595 241.96 110.435 C 242.21 111.635 242.32 112.855 242.31 114.065 C 242.3 115.445 242.2 116.815 242.02 118.175 C 241.81 119.775 241.52 121.355 241.16 122.925 C 240.3 126.615 239.18 130.245 237.83 133.795 C 236.3 137.865 234.55 141.845 232.61 145.735 C 230.55 149.885 228.29 153.935 225.85 157.875 C 223.4 161.835 220.75 165.675 217.9 169.365 C 215.2 172.895 212.28 176.245 209.15 179.395 C 207.69 180.855 206.17 182.255 204.6 183.595 C 203.13 184.845 201.59 186.025 200.01 187.135 C 198.54 188.145 197.02 189.075 195.44 189.905 C 193.58 190.875 191.64 191.665 189.63 192.245 C 188.29 195.705 187.36 199.305 186.86 202.975 C 186.42 206.185 186.21 209.425 186.23 212.665 C 186.26 216.655 186.48 220.635 186.89 224.605 C 187.3 228.645 187.77 232.675 188.3 236.695 C 188.84 240.765 189.32 244.845 189.73 248.925 C 190.14 252.875 190.35 256.835 190.38 260.805 C 190.38 261.755 190.36 262.705 190.33 263.655 C 190.06 270.595 189.4 277.515 188.35 284.375 C 187.88 287.475 187.36 290.565 186.79 293.645 C 186.26 296.485 185.72 299.315 185.16 302.145 C 184.39 305.945 183.68 309.745 183.05 313.575 C 182.78 315.245 182.56 316.935 182.39 318.625 C 182.13 321.075 182.07 323.535 182.2 325.995 C 188.69 326.565 195.14 327.465 201.54 328.695 C 205.78 329.515 209.97 330.545 214.09 331.805 C 217.46 332.845 220.76 334.045 224.01 335.395 C 226.98 336.645 229.93 337.955 232.85 339.325 C 236.12 340.865 239.43 342.325 242.76 343.715 C 246.7 345.335 250.71 346.765 254.78 348.005 C 259.95 349.545 265.19 350.825 270.49 351.845 C 275.74 352.845 281.02 353.695 286.33 354.375 C 283.7 357.625 280.84 360.675 277.77 363.495 C 273.56 367.345 268.98 370.775 264.11 373.735 C 259.19 376.705 254.04 379.275 248.71 381.405 C 243.21 383.605 237.57 385.445 231.84 386.905 C 225.89 388.425 219.88 389.665 213.81 390.605 C 207.56 391.575 201.28 392.345 194.97 392.885 C 188.54 393.445 182.09 393.875 175.64 394.155 C 169.14 394.435 162.65 394.655 156.15 394.805 C 150.35 394.955 144.56 395.035 138.76 395.035 C 133.12 395.045 127.49 394.955 121.86 394.765 C 117 394.615 112.15 394.355 107.31 393.985 C 103.21 393.685 99.12 393.265 95.05 392.725 C 91.7 392.285 88.36 391.725 85.04 391.025 C 82.4 390.475 79.8 389.775 77.24 388.935 C 75.3 388.305 73.43 387.515 71.63 386.555 C 70.38 385.905 69.22 385.075 68.21 384.095 C 67.56 383.475 67.06 382.725 66.73 381.895 C 64.13 374.875 62.14 367.645 60.81 360.285 C 59.6 353.565 58.99 346.755 58.99 339.925 C 59.02 330.495 60.15 321.105 62.36 311.945 C 63.42 307.525 64.69 303.155 66.17 298.845 C 67.63 294.605 69.26 290.435 71.05 286.325 C 72.81 282.275 74.7 278.285 76.72 274.355 C 78.69 270.495 80.76 266.695 82.9 262.935 C 85 259.275 87.14 255.645 89.33 252.045 C 91.45 248.575 93.58 245.125 95.73 241.685 C 98.55 237.185 101.32 232.655 104.04 228.095 C 106.53 223.955 108.85 219.715 111.01 215.385 C 111.99 213.395 112.91 211.375 113.75 209.325 C 114.55 207.385 115.25 205.425 115.86 203.425 C 116.44 201.535 116.89 199.605 117.23 197.655 C 117.55 195.795 117.71 193.905 117.72 192.005 C 117.72 191.995 117.72 191.975 117.72 191.965 L 117.71 191.385 C 117.7 190.425 117.23 189.525 116.44 188.965 C 115.49 188.295 114.59 187.565 113.74 186.785 C 112.77 185.895 111.84 184.965 110.96 183.985 C 108.93 181.705 107.07 179.295 105.38 176.755 C 103.45 173.885 101.67 170.915 100.04 167.855 C 98.29 164.595 96.68 161.255 95.2 157.855 C 93.7 154.395 92.33 150.875 91.09 147.315 C 89.89 143.845 88.83 140.335 87.92 136.775 C 87.07 133.495 86.39 130.175 85.89 126.815 C 85.44 123.915 85.2 120.985 85.18 118.045 C 85.17 116.475 85.27 114.905 85.48 113.345 C 85.57 112.705 85.68 112.075 85.83 111.445 Z " fill-rule="evenodd" fill="rgb(35,37,49)"/><path d=" M 87.06 360.37 C 86.57 361 85.85 361.41 85.06 361.51 C 84.28 361.61 83.48 361.39 82.85 360.9 C 82.22 360.41 81.81 359.69 81.71 358.9 C 81.61 358.12 81.83 357.32 82.32 356.69 C 83.89 354.66 85.54 352.68 87.25 350.77 C 89.21 348.58 91.29 346.5 93.48 344.54 C 95.97 342.31 98.6 340.25 101.36 338.37 C 104.51 336.22 107.82 334.3 111.24 332.61 C 115.2 330.67 119.29 329 123.47 327.61 C 128.36 325.99 133.34 324.67 138.39 323.67 C 144.33 322.49 150.33 321.62 156.37 321.09 C 163.48 320.45 170.62 320.14 177.76 320.16 C 180.29 320.16 182.81 320.2 185.34 320.26 C 186.13 320.28 186.89 320.62 187.44 321.2 C 187.98 321.77 188.28 322.54 188.26 323.34 C 188.24 324.13 187.9 324.89 187.33 325.44 C 186.75 325.98 185.98 326.28 185.18 326.26 C 182.71 326.19 180.23 326.16 177.75 326.16 C 170.79 326.14 163.83 326.44 156.9 327.06 C 151.08 327.58 145.29 328.41 139.57 329.55 C 134.76 330.51 130.01 331.76 125.36 333.3 C 121.44 334.61 117.6 336.17 113.89 338 C 110.72 339.56 107.66 341.34 104.74 343.33 C 102.2 345.06 99.77 346.95 97.48 349 C 95.46 350.82 93.54 352.74 91.72 354.77 C 90.11 356.58 88.55 358.45 87.06 360.37 Z " fill="rgb(35,37,49)"/><path d=" M 191.24 191.78 C 192.01 191.56 192.83 191.66 193.52 192.05 C 194.22 192.44 194.73 193.08 194.95 193.85 C 195.16 194.62 195.06 195.44 194.68 196.13 C 194.29 196.82 193.64 197.34 192.87 197.55 C 189.92 198.38 186.93 199.08 183.91 199.64 C 182.66 199.88 181.41 200.09 180.15 200.28 C 179.23 200.43 178.3 200.54 177.36 200.62 C 176.57 200.68 175.78 200.43 175.17 199.92 C 174.57 199.41 174.19 198.68 174.12 197.88 C 174.05 197.09 174.3 196.3 174.81 195.69 C 175.33 195.09 176.06 194.71 176.85 194.64 C 177.65 194.57 178.45 194.47 179.25 194.35 C 180.43 194.17 181.62 193.97 182.8 193.75 C 185.64 193.22 188.46 192.56 191.24 191.78 Z " fill="rgb(35,37,49)"/><circle vector-effect="non-scaling-stroke" cx="181.47804055564927" cy="132.73260759086352" r="5.4786031024564465" fill="rgb(35,37,49)"/><path d=" M 161.29 322.83 C 161.49 323.6 161.39 324.42 160.99 325.11 C 160.59 325.8 159.94 326.3 159.17 326.51 C 158.4 326.72 157.58 326.61 156.89 326.21 C 156.2 325.82 155.7 325.16 155.49 324.39 C 155.04 322.71 154.72 320.99 154.53 319.25 C 154.32 317.46 154.22 315.65 154.23 313.84 C 154.22 311.51 154.38 309.18 154.69 306.87 C 154.96 304.77 155.41 302.71 156.03 300.69 C 156.27 299.93 156.79 299.3 157.5 298.92 C 158.2 298.55 159.02 298.48 159.78 298.71 C 160.54 298.95 161.18 299.48 161.55 300.18 C 161.92 300.88 162 301.71 161.76 302.47 C 161.24 304.16 160.86 305.89 160.64 307.65 C 160.36 309.7 160.22 311.77 160.23 313.84 C 160.22 315.43 160.31 317.01 160.49 318.59 C 160.64 320.02 160.91 321.44 161.29 322.83 Z " fill="rgb(35,37,49)"/><path d=" M 231.16 106.344 C 233.161 110.866 239.795 115.28 245.187 113.192 C 245.535 108.496 244.404 104.583 241.882 103.714 C 239.36 102.844 234.095 105.366 231.16 106.344 Z " fill="rgb(35,37,49)"/></g><path d=" M 387.125 252.314 L 387.125 252.314 Q 387.199 252.536 387.199 252.98 L 387.199 252.98 L 387.199 270.351 L 387.199 270.351 Q 387.199 276.117 384.501 280.848 L 384.501 280.848 L 384.501 280.848 Q 381.803 285.579 377.109 288.278 L 377.109 288.278 L 377.109 288.278 Q 372.415 290.976 366.649 290.976 L 366.649 290.976 L 366.649 290.976 Q 360.883 290.976 356.189 288.278 L 356.189 288.278 L 356.189 288.278 Q 351.495 285.579 348.797 280.848 L 348.797 280.848 L 348.797 280.848 Q 346.099 276.117 346.099 270.351 L 346.099 270.351 L 346.099 270.351 Q 346.099 264.586 348.723 259.891 L 348.723 259.891 L 348.723 259.891 Q 351.347 255.197 355.893 252.499 L 355.893 252.499 L 355.893 252.499 Q 360.44 249.801 366.058 249.801 L 366.058 249.801 L 366.058 249.801 Q 370.863 249.801 374.854 251.834 L 374.854 251.834 L 374.854 251.834 Q 378.846 253.867 381.433 257.415 L 381.433 257.415 L 381.433 235.756 L 381.433 235.756 Q 381.433 234.499 382.247 233.686 L 382.247 233.686 L 382.247 233.686 Q 383.06 232.873 384.316 232.873 L 384.316 232.873 L 384.316 232.873 Q 385.573 232.873 386.349 233.686 L 386.349 233.686 L 386.349 233.686 Q 387.125 234.499 387.125 235.756 L 387.125 235.756 L 387.125 252.314 Z  M 366.649 285.801 L 366.649 285.801 Q 370.863 285.801 374.263 283.768 L 374.263 283.768 L 374.263 283.768 Q 377.663 281.735 379.622 278.224 L 379.622 278.224 L 379.622 278.224 Q 381.581 274.713 381.581 270.351 L 381.581 270.351 L 381.581 270.351 Q 381.581 269.095 381.507 268.503 L 381.507 268.503 L 381.507 268.503 Q 381.433 268.356 381.433 268.134 L 381.433 268.134 L 381.433 268.134 Q 380.694 262.368 376.592 258.672 L 376.592 258.672 L 376.592 258.672 Q 372.489 254.976 366.649 254.976 L 366.649 254.976 L 366.649 254.976 Q 362.436 254.976 358.998 256.972 L 358.998 256.972 L 358.998 256.972 Q 355.561 258.967 353.602 262.479 L 353.602 262.479 L 353.602 262.479 Q 351.643 265.99 351.643 270.351 L 351.643 270.351 L 351.643 270.351 Q 351.643 274.713 353.602 278.224 L 353.602 278.224 L 353.602 278.224 Q 355.561 281.735 358.998 283.768 L 358.998 283.768 L 358.998 283.768 Q 362.436 285.801 366.649 285.801 L 366.649 285.801 Z  M 417.729 249.801 L 417.729 249.801 Q 423.199 249.801 427.413 252.351 L 427.413 252.351 L 427.413 252.351 Q 431.626 254.902 433.955 259.411 L 433.955 259.411 L 433.955 259.411 Q 436.284 263.92 436.284 269.686 L 436.284 269.686 L 436.284 269.686 Q 436.284 270.869 435.544 271.571 L 435.544 271.571 L 435.544 271.571 Q 434.805 272.273 433.622 272.273 L 433.622 272.273 L 403.758 272.273 L 403.758 272.273 Q 404.349 278.335 408.489 282.105 L 408.489 282.105 L 408.489 282.105 Q 412.629 285.875 418.838 285.875 L 418.838 285.875 L 418.838 285.875 Q 421.499 285.875 424.197 284.951 L 424.197 284.951 L 424.197 284.951 Q 426.895 284.027 428.522 282.622 L 428.522 282.622 L 428.522 282.622 Q 429.483 281.883 430.518 281.883 L 430.518 281.883 L 430.518 281.883 Q 431.331 281.883 432.144 282.475 L 432.144 282.475 L 432.144 282.475 Q 433.105 283.362 433.105 284.471 L 433.105 284.471 L 433.105 284.471 Q 433.105 285.432 432.292 286.171 L 432.292 286.171 L 432.292 286.171 Q 429.852 288.241 426.082 289.608 L 426.082 289.608 L 426.082 289.608 Q 422.312 290.976 418.838 290.976 L 418.838 290.976 L 418.838 290.976 Q 412.924 290.976 408.267 288.351 L 408.267 288.351 L 408.267 288.351 Q 403.61 285.727 400.986 281.033 L 400.986 281.033 L 400.986 281.033 Q 398.362 276.339 398.362 270.425 L 398.362 270.425 L 398.362 270.425 Q 398.362 264.438 400.838 259.744 L 400.838 259.744 L 400.838 259.744 Q 403.314 255.05 407.713 252.425 L 407.713 252.425 L 407.713 252.425 Q 412.111 249.801 417.729 249.801 L 417.729 249.801 Z  M 417.729 254.902 L 417.729 254.902 Q 412.111 254.902 408.415 258.376 L 408.415 258.376 L 408.415 258.376 Q 404.719 261.85 403.906 267.542 L 403.906 267.542 L 430.961 267.542 L 430.961 267.542 Q 430.37 261.85 426.822 258.376 L 426.822 258.376 L 426.822 258.376 Q 423.273 254.902 417.729 254.902 L 417.729 254.902 Z  M 477.384 250.393 L 477.384 250.393 Q 478.936 251.132 478.936 252.758 L 478.936 252.758 L 478.936 252.758 Q 478.936 253.202 478.715 253.793 L 478.715 253.793 L 462.526 288.684 L 462.526 288.684 Q 461.565 290.606 459.717 290.606 L 459.717 290.606 L 459.717 290.606 Q 457.943 290.606 457.056 288.684 L 457.056 288.684 L 440.645 253.867 L 440.645 253.867 Q 440.423 253.423 440.423 252.832 L 440.423 252.832 L 440.423 252.832 Q 440.423 251.28 442.049 250.466 L 442.049 250.466 L 442.049 250.466 Q 442.567 250.171 443.232 250.171 L 443.232 250.171 L 443.232 250.171 Q 443.971 250.171 444.6 250.54 L 444.6 250.54 L 444.6 250.54 Q 445.228 250.91 445.524 251.649 L 445.524 251.649 L 459.717 282.401 L 473.762 251.649 L 473.762 251.649 Q 474.058 250.91 474.723 250.503 L 474.723 250.503 L 474.723 250.503 Q 475.388 250.097 476.201 250.097 L 476.201 250.097 L 476.201 250.097 Q 476.867 250.097 477.384 250.393 L 477.384 250.393 Z " fill-rule="evenodd" fill="rgb(35,37,49)"/><path d=" M 255.002 232.873 L 255.002 232.873 Q 256.184 232.873 256.924 233.612 L 256.924 233.612 L 256.924 233.612 Q 257.663 234.351 257.663 235.534 L 257.663 235.534 L 257.663 235.534 Q 257.663 236.643 256.924 237.382 L 256.924 237.382 L 256.924 237.382 Q 256.184 238.121 255.002 238.121 L 255.002 238.121 L 237.408 238.121 L 237.408 287.723 L 237.408 287.723 Q 237.408 288.906 236.595 289.756 L 236.595 289.756 L 236.595 289.756 Q 235.782 290.606 234.525 290.606 L 234.525 290.606 L 234.525 290.606 Q 233.342 290.606 232.492 289.756 L 232.492 289.756 L 232.492 289.756 Q 231.642 288.906 231.642 287.723 L 231.642 287.723 L 231.642 238.121 L 214.123 238.121 L 214.123 238.121 Q 212.94 238.121 212.201 237.382 L 212.201 237.382 L 212.201 237.382 Q 211.462 236.643 211.462 235.534 L 211.462 235.534 L 211.462 235.534 Q 211.462 234.351 212.201 233.612 L 212.201 233.612 L 212.201 233.612 Q 212.94 232.873 214.123 232.873 L 214.123 232.873 L 255.002 232.873 Z  M 274.69 249.801 L 274.69 249.801 Q 280.16 249.801 284.374 252.351 L 284.374 252.351 L 284.374 252.351 Q 288.588 254.902 290.916 259.411 L 290.916 259.411 L 290.916 259.411 Q 293.245 263.92 293.245 269.686 L 293.245 269.686 L 293.245 269.686 Q 293.245 270.869 292.505 271.571 L 292.505 271.571 L 292.505 271.571 Q 291.766 272.273 290.583 272.273 L 290.583 272.273 L 260.719 272.273 L 260.719 272.273 Q 261.31 278.335 265.45 282.105 L 265.45 282.105 L 265.45 282.105 Q 269.59 285.875 275.799 285.875 L 275.799 285.875 L 275.799 285.875 Q 278.46 285.875 281.158 284.951 L 281.158 284.951 L 281.158 284.951 Q 283.857 284.027 285.483 282.622 L 285.483 282.622 L 285.483 282.622 Q 286.444 281.883 287.479 281.883 L 287.479 281.883 L 287.479 281.883 Q 288.292 281.883 289.105 282.475 L 289.105 282.475 L 289.105 282.475 Q 290.066 283.362 290.066 284.471 L 290.066 284.471 L 290.066 284.471 Q 290.066 285.432 289.253 286.171 L 289.253 286.171 L 289.253 286.171 Q 286.813 288.241 283.043 289.608 L 283.043 289.608 L 283.043 289.608 Q 279.273 290.976 275.799 290.976 L 275.799 290.976 L 275.799 290.976 Q 269.885 290.976 265.228 288.351 L 265.228 288.351 L 265.228 288.351 Q 260.571 285.727 257.947 281.033 L 257.947 281.033 L 257.947 281.033 Q 255.323 276.339 255.323 270.425 L 255.323 270.425 L 255.323 270.425 Q 255.323 264.438 257.799 259.744 L 257.799 259.744 L 257.799 259.744 Q 260.275 255.05 264.674 252.425 L 264.674 252.425 L 264.674 252.425 Q 269.072 249.801 274.69 249.801 L 274.69 249.801 Z  M 274.69 254.902 L 274.69 254.902 Q 269.072 254.902 265.376 258.376 L 265.376 258.376 L 265.376 258.376 Q 261.68 261.85 260.867 267.542 L 260.867 267.542 L 287.922 267.542 L 287.922 267.542 Q 287.331 261.85 283.783 258.376 L 283.783 258.376 L 283.783 258.376 Q 280.234 254.902 274.69 254.902 L 274.69 254.902 Z  M 320.078 249.801 L 320.078 249.801 Q 325.548 249.801 329.762 252.351 L 329.762 252.351 L 329.762 252.351 Q 333.976 254.902 336.304 259.411 L 336.304 259.411 L 336.304 259.411 Q 338.633 263.92 338.633 269.686 L 338.633 269.686 L 338.633 269.686 Q 338.633 270.869 337.893 271.571 L 337.893 271.571 L 337.893 271.571 Q 337.154 272.273 335.971 272.273 L 335.971 272.273 L 306.107 272.273 L 306.107 272.273 Q 306.698 278.335 310.838 282.105 L 310.838 282.105 L 310.838 282.105 Q 314.978 285.875 321.187 285.875 L 321.187 285.875 L 321.187 285.875 Q 323.848 285.875 326.546 284.951 L 326.546 284.951 L 326.546 284.951 Q 329.245 284.027 330.871 282.622 L 330.871 282.622 L 330.871 282.622 Q 331.832 281.883 332.867 281.883 L 332.867 281.883 L 332.867 281.883 Q 333.68 281.883 334.493 282.475 L 334.493 282.475 L 334.493 282.475 Q 335.454 283.362 335.454 284.471 L 335.454 284.471 L 335.454 284.471 Q 335.454 285.432 334.641 286.171 L 334.641 286.171 L 334.641 286.171 Q 332.201 288.241 328.431 289.608 L 328.431 289.608 L 328.431 289.608 Q 324.661 290.976 321.187 290.976 L 321.187 290.976 L 321.187 290.976 Q 315.273 290.976 310.616 288.351 L 310.616 288.351 L 310.616 288.351 Q 305.959 285.727 303.335 281.033 L 303.335 281.033 L 303.335 281.033 Q 300.711 276.339 300.711 270.425 L 300.711 270.425 L 300.711 270.425 Q 300.711 264.438 303.187 259.744 L 303.187 259.744 L 303.187 259.744 Q 305.663 255.05 310.062 252.425 L 310.062 252.425 L 310.062 252.425 Q 314.46 249.801 320.078 249.801 L 320.078 249.801 Z  M 320.078 254.902 L 320.078 254.902 Q 314.46 254.902 310.764 258.376 L 310.764 258.376 L 310.764 258.376 Q 307.068 261.85 306.255 267.542 L 306.255 267.542 L 333.31 267.542 L 333.31 267.542 Q 332.719 261.85 329.171 258.376 L 329.171 258.376 L 329.171 258.376 Q 325.622 254.902 320.078 254.902 L 320.078 254.902 Z " fill-rule="evenodd" fill="rgb(232,134,7)"/></svg>