<?xml version="1.0" standalone="no"?><!-- Generator: Gravit.io --><svg xmlns="http://www.w3.org/2000/svg" xmlns:xlink="http://www.w3.org/1999/xlink" style="isolation:isolate" viewBox="0 0 512 512" width="512" height="512"><g id="Dino"><path d=" M 58.639 365.5 C 75.168 397.827 150.194 402.426 204.938 394.875 C 205.415 401.825 206.293 413.724 211.448 417.498 C 216.371 421.102 254.794 421.462 259.936 417.498 C 265.364 413.315 267.39 395.25 268.015 388.79 C 286.721 391.364 347.639 390.742 361.883 385.25 C 362.133 395.625 364.603 414.759 368.438 417.498 C 373.243 420.93 412.421 422.138 419.795 416.297 C 433.009 405.828 446.144 129.244 421.511 102.763 C 397.485 76.936 326.981 68.834 340.854 112.974 C 344.629 124.987 365.051 145.495 389.248 142.577 C 391.307 175.784 377.793 247.153 352.952 262.018 C 321.709 280.716 258.274 250.345 206.482 321.911 C 165.017 379.207 95.879 378.199 58.639 365.5 Z " id="Body" fill="rgb(143,113,179)"  stroke-width="6" stroke="rgb(34,34,34)" stroke-linejoin="round" stroke-linecap="round" stroke-miterlimit="3"/><path d=" M 204.938 394.875 C 204.509 387.925 203.533 380.559 204.112 371.002" id="Rear Leg Outer Path" fill="none"  stroke-width="6" stroke="rgb(34,34,34)" stroke-linejoin="round" stroke-linecap="round" stroke-miterlimit="3"/><path d=" M 267.937 388.921 C 269.156 377.755 270.564 362.025 270.769 354.495" id="Rear Leg Inner Path" fill="none"  stroke-width="6" stroke="rgb(34,34,34)" stroke-linejoin="round" stroke-linecap="round" stroke-miterlimit="3"/><path d=" M 361.884 385.668 C 360.884 375.236 361.498 364.148 361.884 357.295" id="Front Leg Path" fill="none"  stroke-width="6" stroke="rgb(34,34,34)" stroke-linejoin="round" stroke-linecap="round" stroke-miterlimit="3"/><circle  cx="388.91541050372285" cy="97.34693111221094" r="4.622770983517057" id="Eye" fill="rgb(34,34,34)"/></g><g id="Teedev"><path d=" M 261.236 185.25 L 261.236 185.25 Q 261.31 185.472 261.31 185.916 L 261.31 185.916 L 261.31 203.287 L 261.31 203.287 Q 261.31 209.053 258.612 213.784 L 258.612 213.784 L 258.612 213.784 Q 255.913 218.515 251.219 221.213 L 251.219 221.213 L 251.219 221.213 Q 246.525 223.911 240.759 223.911 L 240.759 223.911 L 240.759 223.911 Q 234.994 223.911 230.3 221.213 L 230.3 221.213 L 230.3 221.213 Q 225.605 218.515 222.907 213.784 L 222.907 213.784 L 222.907 213.784 Q 220.209 209.053 220.209 203.287 L 220.209 203.287 L 220.209 203.287 Q 220.209 197.521 222.833 192.827 L 222.833 192.827 L 222.833 192.827 Q 225.458 188.133 230.004 185.435 L 230.004 185.435 L 230.004 185.435 Q 234.55 182.737 240.168 182.737 L 240.168 182.737 L 240.168 182.737 Q 244.973 182.737 248.965 184.77 L 248.965 184.77 L 248.965 184.77 Q 252.957 186.803 255.544 190.351 L 255.544 190.351 L 255.544 168.692 L 255.544 168.692 Q 255.544 167.435 256.357 166.622 L 256.357 166.622 L 256.357 166.622 Q 257.17 165.809 258.427 165.809 L 258.427 165.809 L 258.427 165.809 Q 259.684 165.809 260.46 166.622 L 260.46 166.622 L 260.46 166.622 Q 261.236 167.435 261.236 168.692 L 261.236 168.692 L 261.236 185.25 Z  M 240.759 218.737 L 240.759 218.737 Q 244.973 218.737 248.373 216.704 L 248.373 216.704 L 248.373 216.704 Q 251.774 214.671 253.733 211.16 L 253.733 211.16 L 253.733 211.16 Q 255.692 207.649 255.692 203.287 L 255.692 203.287 L 255.692 203.287 Q 255.692 202.031 255.618 201.439 L 255.618 201.439 L 255.618 201.439 Q 255.544 201.291 255.544 201.07 L 255.544 201.07 L 255.544 201.07 Q 254.805 195.304 250.702 191.608 L 250.702 191.608 L 250.702 191.608 Q 246.599 187.912 240.759 187.912 L 240.759 187.912 L 240.759 187.912 Q 236.546 187.912 233.109 189.907 L 233.109 189.907 L 233.109 189.907 Q 229.671 191.903 227.712 195.415 L 227.712 195.415 L 227.712 195.415 Q 225.753 198.926 225.753 203.287 L 225.753 203.287 L 225.753 203.287 Q 225.753 207.649 227.712 211.16 L 227.712 211.16 L 227.712 211.16 Q 229.671 214.671 233.109 216.704 L 233.109 216.704 L 233.109 216.704 Q 236.546 218.737 240.759 218.737 L 240.759 218.737 Z  M 291.84 182.737 L 291.84 182.737 Q 297.31 182.737 301.523 185.287 L 301.523 185.287 L 301.523 185.287 Q 305.737 187.838 308.065 192.347 L 308.065 192.347 L 308.065 192.347 Q 310.394 196.856 310.394 202.622 L 310.394 202.622 L 310.394 202.622 Q 310.394 203.805 309.655 204.507 L 309.655 204.507 L 309.655 204.507 Q 308.915 205.209 307.733 205.209 L 307.733 205.209 L 277.868 205.209 L 277.868 205.209 Q 278.46 211.271 282.599 215.041 L 282.599 215.041 L 282.599 215.041 Q 286.739 218.811 292.948 218.811 L 292.948 218.811 L 292.948 218.811 Q 295.61 218.811 298.308 217.887 L 298.308 217.887 L 298.308 217.887 Q 301.006 216.963 302.632 215.558 L 302.632 215.558 L 302.632 215.558 Q 303.593 214.819 304.628 214.819 L 304.628 214.819 L 304.628 214.819 Q 305.441 214.819 306.254 215.41 L 306.254 215.41 L 306.254 215.41 Q 307.215 216.298 307.215 217.406 L 307.215 217.406 L 307.215 217.406 Q 307.215 218.367 306.402 219.107 L 306.402 219.107 L 306.402 219.107 Q 303.963 221.176 300.193 222.544 L 300.193 222.544 L 300.193 222.544 Q 296.423 223.911 292.948 223.911 L 292.948 223.911 L 292.948 223.911 Q 287.035 223.911 282.378 221.287 L 282.378 221.287 L 282.378 221.287 Q 277.72 218.663 275.096 213.969 L 275.096 213.969 L 275.096 213.969 Q 272.472 209.275 272.472 203.361 L 272.472 203.361 L 272.472 203.361 Q 272.472 197.374 274.948 192.679 L 274.948 192.679 L 274.948 192.679 Q 277.425 187.985 281.823 185.361 L 281.823 185.361 L 281.823 185.361 Q 286.221 182.737 291.84 182.737 L 291.84 182.737 Z  M 291.84 187.838 L 291.84 187.838 Q 286.221 187.838 282.525 191.312 L 282.525 191.312 L 282.525 191.312 Q 278.829 194.786 278.016 200.478 L 278.016 200.478 L 305.072 200.478 L 305.072 200.478 Q 304.48 194.786 300.932 191.312 L 300.932 191.312 L 300.932 191.312 Q 297.384 187.838 291.84 187.838 L 291.84 187.838 Z  M 351.495 183.328 L 351.495 183.328 Q 353.047 184.068 353.047 185.694 L 353.047 185.694 L 353.047 185.694 Q 353.047 186.137 352.825 186.729 L 352.825 186.729 L 336.636 221.62 L 336.636 221.62 Q 335.675 223.542 333.827 223.542 L 333.827 223.542 L 333.827 223.542 Q 332.053 223.542 331.166 221.62 L 331.166 221.62 L 314.755 186.803 L 314.755 186.803 Q 314.534 186.359 314.534 185.768 L 314.534 185.768 L 314.534 185.768 Q 314.534 184.215 316.16 183.402 L 316.16 183.402 L 316.16 183.402 Q 316.677 183.107 317.343 183.107 L 317.343 183.107 L 317.343 183.107 Q 318.082 183.107 318.71 183.476 L 318.71 183.476 L 318.71 183.476 Q 319.338 183.846 319.634 184.585 L 319.634 184.585 L 333.827 215.337 L 347.872 184.585 L 347.872 184.585 Q 348.168 183.846 348.833 183.439 L 348.833 183.439 L 348.833 183.439 Q 349.499 183.033 350.312 183.033 L 350.312 183.033 L 350.312 183.033 Q 350.977 183.033 351.495 183.328 L 351.495 183.328 Z " fill-rule="evenodd" id="Compound Path" fill="rgb(143,113,179)"/><path d=" M 129.029 165.809 L 129.029 165.809 Q 130.212 165.809 130.951 166.548 L 130.951 166.548 L 130.951 166.548 Q 131.69 167.287 131.69 168.47 L 131.69 168.47 L 131.69 168.47 Q 131.69 169.579 130.951 170.318 L 130.951 170.318 L 130.951 170.318 Q 130.212 171.057 129.029 171.057 L 129.029 171.057 L 111.435 171.057 L 111.435 220.659 L 111.435 220.659 Q 111.435 221.842 110.622 222.692 L 110.622 222.692 L 110.622 222.692 Q 109.809 223.542 108.552 223.542 L 108.552 223.542 L 108.552 223.542 Q 107.37 223.542 106.52 222.692 L 106.52 222.692 L 106.52 222.692 Q 105.669 221.842 105.669 220.659 L 105.669 220.659 L 105.669 171.057 L 88.15 171.057 L 88.15 171.057 Q 86.967 171.057 86.228 170.318 L 86.228 170.318 L 86.228 170.318 Q 85.489 169.579 85.489 168.47 L 85.489 168.47 L 85.489 168.47 Q 85.489 167.287 86.228 166.548 L 86.228 166.548 L 86.228 166.548 Q 86.967 165.809 88.15 165.809 L 88.15 165.809 L 129.029 165.809 Z  M 148.717 182.737 L 148.717 182.737 Q 154.188 182.737 158.401 185.287 L 158.401 185.287 L 158.401 185.287 Q 162.615 187.838 164.943 192.347 L 164.943 192.347 L 164.943 192.347 Q 167.272 196.856 167.272 202.622 L 167.272 202.622 L 167.272 202.622 Q 167.272 203.805 166.533 204.507 L 166.533 204.507 L 166.533 204.507 Q 165.793 205.209 164.611 205.209 L 164.611 205.209 L 134.746 205.209 L 134.746 205.209 Q 135.338 211.271 139.477 215.041 L 139.477 215.041 L 139.477 215.041 Q 143.617 218.811 149.826 218.811 L 149.826 218.811 L 149.826 218.811 Q 152.487 218.811 155.186 217.887 L 155.186 217.887 L 155.186 217.887 Q 157.884 216.963 159.51 215.558 L 159.51 215.558 L 159.51 215.558 Q 160.471 214.819 161.506 214.819 L 161.506 214.819 L 161.506 214.819 Q 162.319 214.819 163.132 215.41 L 163.132 215.41 L 163.132 215.41 Q 164.093 216.298 164.093 217.406 L 164.093 217.406 L 164.093 217.406 Q 164.093 218.367 163.28 219.107 L 163.28 219.107 L 163.28 219.107 Q 160.841 221.176 157.071 222.544 L 157.071 222.544 L 157.071 222.544 Q 153.301 223.911 149.826 223.911 L 149.826 223.911 L 149.826 223.911 Q 143.913 223.911 139.255 221.287 L 139.255 221.287 L 139.255 221.287 Q 134.598 218.663 131.974 213.969 L 131.974 213.969 L 131.974 213.969 Q 129.35 209.275 129.35 203.361 L 129.35 203.361 L 129.35 203.361 Q 129.35 197.374 131.826 192.679 L 131.826 192.679 L 131.826 192.679 Q 134.303 187.985 138.701 185.361 L 138.701 185.361 L 138.701 185.361 Q 143.099 182.737 148.717 182.737 L 148.717 182.737 Z  M 148.717 187.838 L 148.717 187.838 Q 143.099 187.838 139.403 191.312 L 139.403 191.312 L 139.403 191.312 Q 135.707 194.786 134.894 200.478 L 134.894 200.478 L 161.949 200.478 L 161.949 200.478 Q 161.358 194.786 157.81 191.312 L 157.81 191.312 L 157.81 191.312 Q 154.262 187.838 148.717 187.838 L 148.717 187.838 Z  M 194.106 182.737 L 194.106 182.737 Q 199.576 182.737 203.789 185.287 L 203.789 185.287 L 203.789 185.287 Q 208.003 187.838 210.331 192.347 L 210.331 192.347 L 210.331 192.347 Q 212.66 196.856 212.66 202.622 L 212.66 202.622 L 212.66 202.622 Q 212.66 203.805 211.921 204.507 L 211.921 204.507 L 211.921 204.507 Q 211.181 205.209 209.999 205.209 L 209.999 205.209 L 180.134 205.209 L 180.134 205.209 Q 180.726 211.271 184.865 215.041 L 184.865 215.041 L 184.865 215.041 Q 189.005 218.811 195.214 218.811 L 195.214 218.811 L 195.214 218.811 Q 197.876 218.811 200.574 217.887 L 200.574 217.887 L 200.574 217.887 Q 203.272 216.963 204.898 215.558 L 204.898 215.558 L 204.898 215.558 Q 205.859 214.819 206.894 214.819 L 206.894 214.819 L 206.894 214.819 Q 207.707 214.819 208.52 215.41 L 208.52 215.41 L 208.52 215.41 Q 209.481 216.298 209.481 217.406 L 209.481 217.406 L 209.481 217.406 Q 209.481 218.367 208.668 219.107 L 208.668 219.107 L 208.668 219.107 Q 206.229 221.176 202.459 222.544 L 202.459 222.544 L 202.459 222.544 Q 198.689 223.911 195.214 223.911 L 195.214 223.911 L 195.214 223.911 Q 189.301 223.911 184.644 221.287 L 184.644 221.287 L 184.644 221.287 Q 179.986 218.663 177.362 213.969 L 177.362 213.969 L 177.362 213.969 Q 174.738 209.275 174.738 203.361 L 174.738 203.361 L 174.738 203.361 Q 174.738 197.374 177.214 192.679 L 177.214 192.679 L 177.214 192.679 Q 179.691 187.985 184.089 185.361 L 184.089 185.361 L 184.089 185.361 Q 188.487 182.737 194.106 182.737 L 194.106 182.737 Z  M 194.106 187.838 L 194.106 187.838 Q 188.487 187.838 184.791 191.312 L 184.791 191.312 L 184.791 191.312 Q 181.095 194.786 180.282 200.478 L 180.282 200.478 L 207.338 200.478 L 207.338 200.478 Q 206.746 194.786 203.198 191.312 L 203.198 191.312 L 203.198 191.312 Q 199.65 187.838 194.106 187.838 L 194.106 187.838 Z " fill-rule="evenodd" id="Compound Path" fill="rgb(34,34,34)"/></g></svg>