<?xml version="1.0" standalone="no"?><!-- Generator: Gravit.io --><svg xmlns="http://www.w3.org/2000/svg" xmlns:xlink="http://www.w3.org/1999/xlink" style="isolation:isolate" viewBox="0 0 512 512" width="512" height="512"><g id="Teedev"><path d=" M 297.968 394.39 L 297.968 394.39 Q 298.042 394.612 298.042 395.055 L 298.042 395.055 L 298.042 412.427 L 298.042 412.427 Q 298.042 418.193 295.344 422.924 L 295.344 422.924 L 295.344 422.924 Q 292.646 427.655 287.952 430.353 L 287.952 430.353 L 287.952 430.353 Q 283.258 433.051 277.492 433.051 L 277.492 433.051 L 277.492 433.051 Q 271.726 433.051 267.032 430.353 L 267.032 430.353 L 267.032 430.353 Q 262.338 427.655 259.639 422.924 L 259.639 422.924 L 259.639 422.924 Q 256.941 418.193 256.941 412.427 L 256.941 412.427 L 256.941 412.427 Q 256.941 406.661 259.566 401.967 L 259.566 401.967 L 259.566 401.967 Q 262.19 397.273 266.736 394.575 L 266.736 394.575 L 266.736 394.575 Q 271.282 391.877 276.9 391.877 L 276.9 391.877 L 276.9 391.877 Q 281.705 391.877 285.697 393.91 L 285.697 393.91 L 285.697 393.91 Q 289.689 395.943 292.276 399.491 L 292.276 399.491 L 292.276 377.832 L 292.276 377.832 Q 292.276 376.575 293.089 375.762 L 293.089 375.762 L 293.089 375.762 Q 293.902 374.949 295.159 374.949 L 295.159 374.949 L 295.159 374.949 Q 296.416 374.949 297.192 375.762 L 297.192 375.762 L 297.192 375.762 Q 297.968 376.575 297.968 377.832 L 297.968 377.832 L 297.968 394.39 Z  M 277.492 427.877 L 277.492 427.877 Q 281.705 427.877 285.106 425.844 L 285.106 425.844 L 285.106 425.844 Q 288.506 423.811 290.465 420.3 L 290.465 420.3 L 290.465 420.3 Q 292.424 416.788 292.424 412.427 L 292.424 412.427 L 292.424 412.427 Q 292.424 411.17 292.35 410.579 L 292.35 410.579 L 292.35 410.579 Q 292.276 410.431 292.276 410.209 L 292.276 410.209 L 292.276 410.209 Q 291.537 404.444 287.434 400.747 L 287.434 400.747 L 287.434 400.747 Q 283.331 397.051 277.492 397.051 L 277.492 397.051 L 277.492 397.051 Q 273.278 397.051 269.841 399.047 L 269.841 399.047 L 269.841 399.047 Q 266.403 401.043 264.444 404.554 L 264.444 404.554 L 264.444 404.554 Q 262.485 408.066 262.485 412.427 L 262.485 412.427 L 262.485 412.427 Q 262.485 416.788 264.444 420.3 L 264.444 420.3 L 264.444 420.3 Q 266.403 423.811 269.841 425.844 L 269.841 425.844 L 269.841 425.844 Q 273.278 427.877 277.492 427.877 L 277.492 427.877 Z  M 328.572 391.877 L 328.572 391.877 Q 334.042 391.877 338.255 394.427 L 338.255 394.427 L 338.255 394.427 Q 342.469 396.977 344.798 401.487 L 344.798 401.487 L 344.798 401.487 Q 347.126 405.996 347.126 411.762 L 347.126 411.762 L 347.126 411.762 Q 347.126 412.945 346.387 413.647 L 346.387 413.647 L 346.387 413.647 Q 345.648 414.349 344.465 414.349 L 344.465 414.349 L 314.6 414.349 L 314.6 414.349 Q 315.192 420.411 319.331 424.181 L 319.331 424.181 L 319.331 424.181 Q 323.471 427.951 329.681 427.951 L 329.681 427.951 L 329.681 427.951 Q 332.342 427.951 335.04 427.027 L 335.04 427.027 L 335.04 427.027 Q 337.738 426.103 339.364 424.698 L 339.364 424.698 L 339.364 424.698 Q 340.325 423.959 341.36 423.959 L 341.36 423.959 L 341.36 423.959 Q 342.173 423.959 342.986 424.55 L 342.986 424.55 L 342.986 424.55 Q 343.947 425.437 343.947 426.546 L 343.947 426.546 L 343.947 426.546 Q 343.947 427.507 343.134 428.246 L 343.134 428.246 L 343.134 428.246 Q 340.695 430.316 336.925 431.684 L 336.925 431.684 L 336.925 431.684 Q 333.155 433.051 329.681 433.051 L 329.681 433.051 L 329.681 433.051 Q 323.767 433.051 319.11 430.427 L 319.11 430.427 L 319.11 430.427 Q 314.453 427.803 311.828 423.109 L 311.828 423.109 L 311.828 423.109 Q 309.204 418.415 309.204 412.501 L 309.204 412.501 L 309.204 412.501 Q 309.204 406.513 311.681 401.819 L 311.681 401.819 L 311.681 401.819 Q 314.157 397.125 318.555 394.501 L 318.555 394.501 L 318.555 394.501 Q 322.954 391.877 328.572 391.877 L 328.572 391.877 Z  M 328.572 396.977 L 328.572 396.977 Q 322.954 396.977 319.258 400.452 L 319.258 400.452 L 319.258 400.452 Q 315.561 403.926 314.748 409.618 L 314.748 409.618 L 341.804 409.618 L 341.804 409.618 Q 341.212 403.926 337.664 400.452 L 337.664 400.452 L 337.664 400.452 Q 334.116 396.977 328.572 396.977 L 328.572 396.977 Z  M 388.227 392.468 L 388.227 392.468 Q 389.779 393.207 389.779 394.834 L 389.779 394.834 L 389.779 394.834 Q 389.779 395.277 389.557 395.869 L 389.557 395.869 L 373.368 430.76 L 373.368 430.76 Q 372.407 432.682 370.559 432.682 L 370.559 432.682 L 370.559 432.682 Q 368.785 432.682 367.898 430.76 L 367.898 430.76 L 351.487 395.943 L 351.487 395.943 Q 351.266 395.499 351.266 394.908 L 351.266 394.908 L 351.266 394.908 Q 351.266 393.355 352.892 392.542 L 352.892 392.542 L 352.892 392.542 Q 353.409 392.246 354.075 392.246 L 354.075 392.246 L 354.075 392.246 Q 354.814 392.246 355.442 392.616 L 355.442 392.616 L 355.442 392.616 Q 356.071 392.986 356.366 393.725 L 356.366 393.725 L 370.559 424.476 L 384.605 393.725 L 384.605 393.725 Q 384.9 392.986 385.565 392.579 L 385.565 392.579 L 385.565 392.579 Q 386.231 392.173 387.044 392.173 L 387.044 392.173 L 387.044 392.173 Q 387.709 392.173 388.227 392.468 L 388.227 392.468 Z " fill-rule="evenodd" id="Compound Path" fill="rgb(136,136,136)"/><path d=" M 165.761 374.949 L 165.761 374.949 Q 166.944 374.949 167.683 375.688 L 167.683 375.688 L 167.683 375.688 Q 168.422 376.427 168.422 377.61 L 168.422 377.61 L 168.422 377.61 Q 168.422 378.719 167.683 379.458 L 167.683 379.458 L 167.683 379.458 Q 166.944 380.197 165.761 380.197 L 165.761 380.197 L 148.168 380.197 L 148.168 429.799 L 148.168 429.799 Q 148.168 430.982 147.354 431.832 L 147.354 431.832 L 147.354 431.832 Q 146.541 432.682 145.285 432.682 L 145.285 432.682 L 145.285 432.682 Q 144.102 432.682 143.252 431.832 L 143.252 431.832 L 143.252 431.832 Q 142.402 430.982 142.402 429.799 L 142.402 429.799 L 142.402 380.197 L 124.882 380.197 L 124.882 380.197 Q 123.699 380.197 122.96 379.458 L 122.96 379.458 L 122.96 379.458 Q 122.221 378.719 122.221 377.61 L 122.221 377.61 L 122.221 377.61 Q 122.221 376.427 122.96 375.688 L 122.96 375.688 L 122.96 375.688 Q 123.699 374.949 124.882 374.949 L 124.882 374.949 L 165.761 374.949 Z  M 185.45 391.877 L 185.45 391.877 Q 190.92 391.877 195.133 394.427 L 195.133 394.427 L 195.133 394.427 Q 199.347 396.977 201.675 401.487 L 201.675 401.487 L 201.675 401.487 Q 204.004 405.996 204.004 411.762 L 204.004 411.762 L 204.004 411.762 Q 204.004 412.945 203.265 413.647 L 203.265 413.647 L 203.265 413.647 Q 202.526 414.349 201.343 414.349 L 201.343 414.349 L 171.478 414.349 L 171.478 414.349 Q 172.07 420.411 176.209 424.181 L 176.209 424.181 L 176.209 424.181 Q 180.349 427.951 186.558 427.951 L 186.558 427.951 L 186.558 427.951 Q 189.22 427.951 191.918 427.027 L 191.918 427.027 L 191.918 427.027 Q 194.616 426.103 196.242 424.698 L 196.242 424.698 L 196.242 424.698 Q 197.203 423.959 198.238 423.959 L 198.238 423.959 L 198.238 423.959 Q 199.051 423.959 199.864 424.55 L 199.864 424.55 L 199.864 424.55 Q 200.825 425.437 200.825 426.546 L 200.825 426.546 L 200.825 426.546 Q 200.825 427.507 200.012 428.246 L 200.012 428.246 L 200.012 428.246 Q 197.573 430.316 193.803 431.684 L 193.803 431.684 L 193.803 431.684 Q 190.033 433.051 186.558 433.051 L 186.558 433.051 L 186.558 433.051 Q 180.645 433.051 175.988 430.427 L 175.988 430.427 L 175.988 430.427 Q 171.331 427.803 168.706 423.109 L 168.706 423.109 L 168.706 423.109 Q 166.082 418.415 166.082 412.501 L 166.082 412.501 L 166.082 412.501 Q 166.082 406.513 168.558 401.819 L 168.558 401.819 L 168.558 401.819 Q 171.035 397.125 175.433 394.501 L 175.433 394.501 L 175.433 394.501 Q 179.832 391.877 185.45 391.877 L 185.45 391.877 Z  M 185.45 396.977 L 185.45 396.977 Q 179.832 396.977 176.135 400.452 L 176.135 400.452 L 176.135 400.452 Q 172.439 403.926 171.626 409.618 L 171.626 409.618 L 198.682 409.618 L 198.682 409.618 Q 198.09 403.926 194.542 400.452 L 194.542 400.452 L 194.542 400.452 Q 190.994 396.977 185.45 396.977 L 185.45 396.977 Z  M 230.838 391.877 L 230.838 391.877 Q 236.308 391.877 240.521 394.427 L 240.521 394.427 L 240.521 394.427 Q 244.735 396.977 247.064 401.487 L 247.064 401.487 L 247.064 401.487 Q 249.392 405.996 249.392 411.762 L 249.392 411.762 L 249.392 411.762 Q 249.392 412.945 248.653 413.647 L 248.653 413.647 L 248.653 413.647 Q 247.914 414.349 246.731 414.349 L 246.731 414.349 L 216.866 414.349 L 216.866 414.349 Q 217.458 420.411 221.597 424.181 L 221.597 424.181 L 221.597 424.181 Q 225.737 427.951 231.947 427.951 L 231.947 427.951 L 231.947 427.951 Q 234.608 427.951 237.306 427.027 L 237.306 427.027 L 237.306 427.027 Q 240.004 426.103 241.63 424.698 L 241.63 424.698 L 241.63 424.698 Q 242.591 423.959 243.626 423.959 L 243.626 423.959 L 243.626 423.959 Q 244.439 423.959 245.252 424.55 L 245.252 424.55 L 245.252 424.55 Q 246.213 425.437 246.213 426.546 L 246.213 426.546 L 246.213 426.546 Q 246.213 427.507 245.4 428.246 L 245.4 428.246 L 245.4 428.246 Q 242.961 430.316 239.191 431.684 L 239.191 431.684 L 239.191 431.684 Q 235.421 433.051 231.947 433.051 L 231.947 433.051 L 231.947 433.051 Q 226.033 433.051 221.376 430.427 L 221.376 430.427 L 221.376 430.427 Q 216.719 427.803 214.094 423.109 L 214.094 423.109 L 214.094 423.109 Q 211.47 418.415 211.47 412.501 L 211.47 412.501 L 211.47 412.501 Q 211.47 406.513 213.947 401.819 L 213.947 401.819 L 213.947 401.819 Q 216.423 397.125 220.821 394.501 L 220.821 394.501 L 220.821 394.501 Q 225.22 391.877 230.838 391.877 L 230.838 391.877 Z  M 230.838 396.977 L 230.838 396.977 Q 225.22 396.977 221.524 400.452 L 221.524 400.452 L 221.524 400.452 Q 217.827 403.926 217.014 409.618 L 217.014 409.618 L 244.07 409.618 L 244.07 409.618 Q 243.478 403.926 239.93 400.452 L 239.93 400.452 L 239.93 400.452 Q 236.382 396.977 230.838 396.977 L 230.838 396.977 Z " fill-rule="evenodd" id="Compound Path" fill="rgb(34,34,34)"/></g><g id="CynicalToaster Outlined"><mask id="_mask_1w02ktbHf0f96c6V8knnBkL3mqzftS3Q"><path d=" M 256 101.438 C 201.563 101.438 199.688 120.938 199.688 126.563 C 199.688 132.188 202.5 137.438 207.188 139.875 Q 207.188 150.188 207.188 172.688 L 256 172.688 L 256 172.688 L 304.813 172.688 Q 304.813 150.188 304.813 139.875 C 309.5 137.438 312.313 132.188 312.313 126.563 C 312.313 120.938 310.438 101.438 256 101.438 L 256 101.438 Z " id="Path" fill="white" stroke="none"/></mask><path d=" M 256 101.438 C 201.563 101.438 199.688 120.938 199.688 126.563 C 199.688 132.188 202.5 137.438 207.188 139.875 Q 207.188 150.188 207.188 172.688 L 256 172.688 L 256 172.688 L 304.813 172.688 Q 304.813 150.188 304.813 139.875 C 309.5 137.438 312.313 132.188 312.313 126.563 C 312.313 120.938 310.438 101.438 256 101.438 L 256 101.438 Z " id="Path" fill="rgb(247,231,210)" mask="url(#_mask_1w02ktbHf0f96c6V8knnBkL3mqzftS3Q)"  stroke-width="12" stroke="rgb(34,34,34)" stroke-linejoin="miter" stroke-linecap="square" stroke-miterlimit="3"/><rect x="159.696" y="339.563" width="21.54" height="9.609" transform="matrix(1,0,0,1,0,0)" id="Rectangle" fill="rgb(34,34,34)"/><rect x="330.521" y="339.563" width="21.54" height="9.609" transform="matrix(1,0,0,1,0,0)" id="Rectangle" fill="rgb(34,34,34)"/><rect x="385" y="231.915" width="15.466" height="9.609" transform="matrix(1,0,0,1,0,0)" id="Rectangle" fill="rgb(34,34,34)"/><mask id="_mask_oZiRgNvrnMQPF92CHGpgNyU9VkY9teVc"><path d=" M 255.879 159 C 163.376 159 126.758 182.25 126.758 228.75 Q 126.758 271.875 126.758 330.375 L 255.879 330.375 L 255.879 330.375 L 385 330.375 Q 385 271.875 385 228.75 C 385 182.25 348.382 159 255.879 159 L 255.879 159 Z " id="Path" fill="white" stroke="none"/></mask><path d=" M 255.879 159 C 163.376 159 126.758 182.25 126.758 228.75 Q 126.758 271.875 126.758 330.375 L 255.879 330.375 L 255.879 330.375 L 385 330.375 Q 385 271.875 385 228.75 C 385 182.25 348.382 159 255.879 159 L 255.879 159 Z " id="Path" fill="rgb(170,170,170)" mask="url(#_mask_oZiRgNvrnMQPF92CHGpgNyU9VkY9teVc)"  stroke-width="12" stroke="rgb(34,34,34)" stroke-linejoin="miter" stroke-linecap="square" stroke-miterlimit="3"/><path d=" M 255.879 179 C 174.172 179 141.827 199.537 141.827 240.61 Q 141.827 278.702 141.827 330.375 L 255.879 330.375 L 255.879 330.375 L 369.931 330.375 Q 369.931 278.702 369.931 240.61 C 369.931 199.537 337.586 179 255.879 179 L 255.879 179 Z " id="Path" fill="rgb(187,187,187)"/><path d="M 129.126 321.188 L 382.632 321.188 C 387.669 321.188 391.758 325.277 391.758 330.314 L 391.758 330.436 C 391.758 335.473 387.669 339.563 382.632 339.563 L 129.126 339.563 C 124.089 339.563 120 335.473 120 330.436 L 120 330.314 C 120 325.277 124.089 321.188 129.126 321.188 Z" style="stroke:none;fill:#222222;stroke-miterlimit:10;"/><g id="Left Eye"><ellipse  cx="227.62500000000006" cy="239.81249999999994" rx="12.75" ry="23.90625" id="Ellipse" fill="rgb(51,51,51)"/><ellipse  cx="222.84375" cy="241.49999999999997" rx="4.781250000000028" ry="8.964843750000028" id="Ellipse" fill="rgb(34,34,34)"/><path d=" M 204.25 210.875 C 211.5 194.625 233.75 208.154 244.125 215.529" id="Left Eye Brow" fill="none"  stroke-width="5" stroke="rgb(102,102,102)" stroke-linejoin="miter" stroke-linecap="round" stroke-miterlimit="3"/></g><g id="Right Eye"><path d=" M 281.572 236.04 C 281.258 237.975 281.094 240.03 281.094 242.156 C 281.094 254.057 286.247 263.719 292.594 263.719 C 298.941 263.719 304.094 254.057 304.094 242.156 C 304.094 237.935 303.446 233.996 302.323 230.673 C 293.827 230.387 286.208 232.601 281.572 236.04 Z " id="Path" fill="rgb(51,51,51)"/><ellipse  cx="287.53125" cy="243.93750000000003" rx="4.500000000000057" ry="8.437500000000114" id="Ellipse" fill="rgb(34,34,34)"/><path d=" M 278.625 238.875 C 282.797 233.344 293.766 229.547 305.875 230.938" id="Right Eye Brow" fill="none"  stroke-width="5" stroke="rgb(102,102,102)" stroke-linejoin="miter" stroke-linecap="round" stroke-miterlimit="3"/></g><path d=" M 242.625 276.938 C 250.438 272.313 262.813 274.688 273.188 282.063" id="Mouth" fill="none"  stroke-width="5" stroke="rgb(102,102,102)" stroke-linejoin="miter" stroke-linecap="round" stroke-miterlimit="3"/></g></svg>