<?xml version="1.0" standalone="no"?><!-- Generator: Gravit.io --><svg xmlns="http://www.w3.org/2000/svg" xmlns:xlink="http://www.w3.org/1999/xlink" style="isolation:isolate" viewBox="0 0 512 512" width="512" height="512"><defs><clipPath id="_clipPath_87QkGJ9og6YvzO0c1XDtQkyGM9YPu0Ao"><rect width="512" height="512"/></clipPath></defs><g clip-path="url(#_clipPath_87QkGJ9og6YvzO0c1XDtQkyGM9YPu0Ao)"><g id="Fox"><path d=" M 243.647 106.543 C 252.923 121.848 221.645 184.663 191.933 194.664 C 184.803 214.665 194.139 240.553 193.325 263.77 C 192.397 290.206 185.136 310.738 185.136 323.261 C 238.878 328.951 229.617 345.05 291.882 352.007 C 262.662 393.053 208.183 396.513 156.221 397.807 C 95.696 399.314 67.712 393.236 63.925 382.966 C 30.068 291.134 115.552 230.724 114.711 191.417 C 96.159 178.431 76.86 127.369 83.527 108.63 C 97.527 106.035 116.194 130.702 129.785 134.138 C 125.842 121.848 122.944 82.773 131.002 74.946 C 145.786 76.396 152.41 101.209 167.194 111.992 C 186.61 105.535 204.735 110.66 224.863 108.63 C 232.027 107.907 240.449 101.266 243.647 106.543 Z " id="Body" fill="rgb(236,141,82)" stroke-width="6" stroke="rgb(34,34,34)" stroke-linejoin="round" stroke-linecap="round" stroke-miterlimit="3"/><g id="White Bits"><path d=" M 186.754 203.808 C 167.483 218.827 193.375 251.64 189.211 277.99 C 193.875 245.14 185.089 236.913 186.754 203.808 Z " id="Path" fill="rgb(255,255,255)"/><path d=" M 224.01 335.395 C 213.698 340.458 213.336 382.824 222.711 389.011 C 233.301 386.904 265.687 380.64 286.465 354.308 C 248.484 349.41 239.977 341.253 224.01 335.395 Z " id="Path" fill="rgb(255,255,255)"/><path d=" M 192.23 191.417 C 189.293 192.542 183.879 193.714 179.77 194.289 C 174.727 182.125 214.783 170.453 240.328 126.195 C 234 149.031 212.58 183.623 192.23 191.417 Z " id="Path" fill="rgb(255,255,255)"/></g><path d=" M 185.261 323.261 C 118.083 321.516 96.69 343.166 84.689 358.529" id="Tail Path" fill="none" stroke-width="6" stroke="rgb(34,34,34)" stroke-linejoin="round" stroke-linecap="round" stroke-miterlimit="3"/><path d=" M 192.058 194.664 C 186.239 196.324 179.652 197.432 177.108 197.628" id="Neck Path" fill="none" stroke-width="6" stroke="rgb(34,34,34)" stroke-linejoin="round" stroke-linecap="round" stroke-miterlimit="3"/><circle cx="181.47804055564927" cy="132.73260759086352" r="5.4786031024564465" id="Eye" fill="rgb(35,37,49)"/><path d=" M 158.39 323.614 C 156.534 316.889 157.042 307.376 158.897 301.578" id="Leg Path" fill="none" stroke-width="6" stroke="rgb(34,34,34)" stroke-linejoin="round" stroke-linecap="round" stroke-miterlimit="3"/><path d=" M 231.16 106.344 C 233.161 110.866 239.795 115.28 245.187 113.192 C 245.535 108.496 244.404 104.583 241.882 103.714 C 239.36 102.844 234.095 105.366 231.16 106.344 Z " id="Nose" fill="rgb(34,34,34)"/></g><g id="Teedev"><path d=" M 387.125 252.314 L 387.125 252.314 Q 387.199 252.536 387.199 252.98 L 387.199 252.98 L 387.199 270.351 L 387.199 270.351 Q 387.199 276.117 384.501 280.848 L 384.501 280.848 L 384.501 280.848 Q 381.803 285.579 377.109 288.278 L 377.109 288.278 L 377.109 288.278 Q 372.415 290.976 366.649 290.976 L 366.649 290.976 L 366.649 290.976 Q 360.883 290.976 356.189 288.278 L 356.189 288.278 L 356.189 288.278 Q 351.495 285.579 348.797 280.848 L 348.797 280.848 L 348.797 280.848 Q 346.099 276.117 346.099 270.351 L 346.099 270.351 L 346.099 270.351 Q 346.099 264.586 348.723 259.891 L 348.723 259.891 L 348.723 259.891 Q 351.347 255.197 355.893 252.499 L 355.893 252.499 L 355.893 252.499 Q 360.44 249.801 366.058 249.801 L 366.058 249.801 L 366.058 249.801 Q 370.863 249.801 374.854 251.834 L 374.854 251.834 L 374.854 251.834 Q 378.846 253.867 381.433 257.415 L 381.433 257.415 L 381.433 235.756 L 381.433 235.756 Q 381.433 234.499 382.247 233.686 L 382.247 233.686 L 382.247 233.686 Q 383.06 232.873 384.316 232.873 L 384.316 232.873 L 384.316 232.873 Q 385.573 232.873 386.349 233.686 L 386.349 233.686 L 386.349 233.686 Q 387.125 234.499 387.125 235.756 L 387.125 235.756 L 387.125 252.314 Z  M 366.649 285.801 L 366.649 285.801 Q 370.863 285.801 374.263 283.768 L 374.263 283.768 L 374.263 283.768 Q 377.663 281.735 379.622 278.224 L 379.622 278.224 L 379.622 278.224 Q 381.581 274.713 381.581 270.351 L 381.581 270.351 L 381.581 270.351 Q 381.581 269.095 381.507 268.503 L 381.507 268.503 L 381.507 268.503 Q 381.433 268.356 381.433 268.134 L 381.433 268.134 L 381.433 268.134 Q 380.694 262.368 376.592 258.672 L 376.592 258.672 L 376.592 258.672 Q 372.489 254.976 366.649 254.976 L 366.649 254.976 L 366.649 254.976 Q 362.436 254.976 358.998 256.972 L 358.998 256.972 L 358.998 256.972 Q 355.561 258.967 353.602 262.479 L 353.602 262.479 L 353.602 262.479 Q 351.643 265.99 351.643 270.351 L 351.643 270.351 L 351.643 270.351 Q 351.643 274.713 353.602 278.224 L 353.602 278.224 L 353.602 278.224 Q 355.561 281.735 358.998 283.768 L 358.998 283.768 L 358.998 283.768 Q 362.436 285.801 366.649 285.801 L 366.649 285.801 Z  M 417.729 249.801 L 417.729 249.801 Q 423.199 249.801 427.413 252.351 L 427.413 252.351 L 427.413 252.351 Q 431.626 254.902 433.955 259.411 L 433.955 259.411 L 433.955 259.411 Q 436.284 263.92 436.284 269.686 L 436.284 269.686 L 436.284 269.686 Q 436.284 270.869 435.544 271.571 L 435.544 271.571 L 435.544 271.571 Q 434.805 272.273 433.622 272.273 L 433.622 272.273 L 403.758 272.273 L 403.758 272.273 Q 404.349 278.335 408.489 282.105 L 408.489 282.105 L 408.489 282.105 Q 412.629 285.875 418.838 285.875 L 418.838 285.875 L 418.838 285.875 Q 421.499 285.875 424.197 284.951 L 424.197 284.951 L 424.197 284.951 Q 426.895 284.027 428.522 282.622 L 428.522 282.622 L 428.522 282.622 Q 429.483 281.883 430.518 281.883 L 430.518 281.883 L 430.518 281.883 Q 431.331 281.883 432.144 282.475 L 432.144 282.475 L 432.144 282.475 Q 433.105 283.362 433.105 284.471 L 433.105 284.471 L 433.105 284.471 Q 433.105 285.432 432.292 286.171 L 432.292 286.171 L 432.292 286.171 Q 429.852 288.241 426.082 289.608 L 426.082 289.608 L 426.082 289.608 Q 422.312 290.976 418.838 290.976 L 418.838 290.976 L 418.838 290.976 Q 412.924 290.976 408.267 288.351 L 408.267 288.351 L 408.267 288.351 Q 403.61 285.727 400.986 281.033 L 400.986 281.033 L 400.986 281.033 Q 398.362 276.339 398.362 270.425 L 398.362 270.425 L 398.362 270.425 Q 398.362 264.438 400.838 259.744 L 400.838 259.744 L 400.838 259.744 Q 403.314 255.05 407.713 252.425 L 407.713 252.425 L 407.713 252.425 Q 412.111 249.801 417.729 249.801 L 417.729 249.801 Z  M 417.729 254.902 L 417.729 254.902 Q 412.111 254.902 408.415 258.376 L 408.415 258.376 L 408.415 258.376 Q 404.719 261.85 403.906 267.542 L 403.906 267.542 L 430.961 267.542 L 430.961 267.542 Q 430.37 261.85 426.822 258.376 L 426.822 258.376 L 426.822 258.376 Q 423.273 254.902 417.729 254.902 L 417.729 254.902 Z  M 477.384 250.393 L 477.384 250.393 Q 478.936 251.132 478.936 252.758 L 478.936 252.758 L 478.936 252.758 Q 478.936 253.202 478.715 253.793 L 478.715 253.793 L 462.526 288.684 L 462.526 288.684 Q 461.565 290.606 459.717 290.606 L 459.717 290.606 L 459.717 290.606 Q 457.943 290.606 457.056 288.684 L 457.056 288.684 L 440.645 253.867 L 440.645 253.867 Q 440.423 253.423 440.423 252.832 L 440.423 252.832 L 440.423 252.832 Q 440.423 251.28 442.049 250.466 L 442.049 250.466 L 442.049 250.466 Q 442.567 250.171 443.232 250.171 L 443.232 250.171 L 443.232 250.171 Q 443.971 250.171 444.6 250.54 L 444.6 250.54 L 444.6 250.54 Q 445.228 250.91 445.524 251.649 L 445.524 251.649 L 459.717 282.401 L 473.762 251.649 L 473.762 251.649 Q 474.058 250.91 474.723 250.503 L 474.723 250.503 L 474.723 250.503 Q 475.388 250.097 476.201 250.097 L 476.201 250.097 L 476.201 250.097 Q 476.867 250.097 477.384 250.393 L 477.384 250.393 Z " fill-rule="evenodd" id="Compound Path" fill="rgb(236,141,82)"/><path d=" M 255.002 232.873 L 255.002 232.873 Q 256.184 232.873 256.924 233.612 L 256.924 233.612 L 256.924 233.612 Q 257.663 234.351 257.663 235.534 L 257.663 235.534 L 257.663 235.534 Q 257.663 236.643 256.924 237.382 L 256.924 237.382 L 256.924 237.382 Q 256.184 238.121 255.002 238.121 L 255.002 238.121 L 237.408 238.121 L 237.408 287.723 L 237.408 287.723 Q 237.408 288.906 236.595 289.756 L 236.595 289.756 L 236.595 289.756 Q 235.782 290.606 234.525 290.606 L 234.525 290.606 L 234.525 290.606 Q 233.342 290.606 232.492 289.756 L 232.492 289.756 L 232.492 289.756 Q 231.642 288.906 231.642 287.723 L 231.642 287.723 L 231.642 238.121 L 214.123 238.121 L 214.123 238.121 Q 212.94 238.121 212.201 237.382 L 212.201 237.382 L 212.201 237.382 Q 211.462 236.643 211.462 235.534 L 211.462 235.534 L 211.462 235.534 Q 211.462 234.351 212.201 233.612 L 212.201 233.612 L 212.201 233.612 Q 212.94 232.873 214.123 232.873 L 214.123 232.873 L 255.002 232.873 Z  M 274.69 249.801 L 274.69 249.801 Q 280.16 249.801 284.374 252.351 L 284.374 252.351 L 284.374 252.351 Q 288.588 254.902 290.916 259.411 L 290.916 259.411 L 290.916 259.411 Q 293.245 263.92 293.245 269.686 L 293.245 269.686 L 293.245 269.686 Q 293.245 270.869 292.505 271.571 L 292.505 271.571 L 292.505 271.571 Q 291.766 272.273 290.583 272.273 L 290.583 272.273 L 260.719 272.273 L 260.719 272.273 Q 261.31 278.335 265.45 282.105 L 265.45 282.105 L 265.45 282.105 Q 269.59 285.875 275.799 285.875 L 275.799 285.875 L 275.799 285.875 Q 278.46 285.875 281.158 284.951 L 281.158 284.951 L 281.158 284.951 Q 283.857 284.027 285.483 282.622 L 285.483 282.622 L 285.483 282.622 Q 286.444 281.883 287.479 281.883 L 287.479 281.883 L 287.479 281.883 Q 288.292 281.883 289.105 282.475 L 289.105 282.475 L 289.105 282.475 Q 290.066 283.362 290.066 284.471 L 290.066 284.471 L 290.066 284.471 Q 290.066 285.432 289.253 286.171 L 289.253 286.171 L 289.253 286.171 Q 286.813 288.241 283.043 289.608 L 283.043 289.608 L 283.043 289.608 Q 279.273 290.976 275.799 290.976 L 275.799 290.976 L 275.799 290.976 Q 269.885 290.976 265.228 288.351 L 265.228 288.351 L 265.228 288.351 Q 260.571 285.727 257.947 281.033 L 257.947 281.033 L 257.947 281.033 Q 255.323 276.339 255.323 270.425 L 255.323 270.425 L 255.323 270.425 Q 255.323 264.438 257.799 259.744 L 257.799 259.744 L 257.799 259.744 Q 260.275 255.05 264.674 252.425 L 264.674 252.425 L 264.674 252.425 Q 269.072 249.801 274.69 249.801 L 274.69 249.801 Z  M 274.69 254.902 L 274.69 254.902 Q 269.072 254.902 265.376 258.376 L 265.376 258.376 L 265.376 258.376 Q 261.68 261.85 260.867 267.542 L 260.867 267.542 L 287.922 267.542 L 287.922 267.542 Q 287.331 261.85 283.783 258.376 L 283.783 258.376 L 283.783 258.376 Q 280.234 254.902 274.69 254.902 L 274.69 254.902 Z  M 320.078 249.801 L 320.078 249.801 Q 325.548 249.801 329.762 252.351 L 329.762 252.351 L 329.762 252.351 Q 333.976 254.902 336.304 259.411 L 336.304 259.411 L 336.304 259.411 Q 338.633 263.92 338.633 269.686 L 338.633 269.686 L 338.633 269.686 Q 338.633 270.869 337.893 271.571 L 337.893 271.571 L 337.893 271.571 Q 337.154 272.273 335.971 272.273 L 335.971 272.273 L 306.107 272.273 L 306.107 272.273 Q 306.698 278.335 310.838 282.105 L 310.838 282.105 L 310.838 282.105 Q 314.978 285.875 321.187 285.875 L 321.187 285.875 L 321.187 285.875 Q 323.848 285.875 326.546 284.951 L 326.546 284.951 L 326.546 284.951 Q 329.245 284.027 330.871 282.622 L 330.871 282.622 L 330.871 282.622 Q 331.832 281.883 332.867 281.883 L 332.867 281.883 L 332.867 281.883 Q 333.68 281.883 334.493 282.475 L 334.493 282.475 L 334.493 282.475 Q 335.454 283.362 335.454 284.471 L 335.454 284.471 L 335.454 284.471 Q 335.454 285.432 334.641 286.171 L 334.641 286.171 L 334.641 286.171 Q 332.201 288.241 328.431 289.608 L 328.431 289.608 L 328.431 289.608 Q 324.661 290.976 321.187 290.976 L 321.187 290.976 L 321.187 290.976 Q 315.273 290.976 310.616 288.351 L 310.616 288.351 L 310.616 288.351 Q 305.959 285.727 303.335 281.033 L 303.335 281.033 L 303.335 281.033 Q 300.711 276.339 300.711 270.425 L 300.711 270.425 L 300.711 270.425 Q 300.711 264.438 303.187 259.744 L 303.187 259.744 L 303.187 259.744 Q 305.663 255.05 310.062 252.425 L 310.062 252.425 L 310.062 252.425 Q 314.46 249.801 320.078 249.801 L 320.078 249.801 Z  M 320.078 254.902 L 320.078 254.902 Q 314.46 254.902 310.764 258.376 L 310.764 258.376 L 310.764 258.376 Q 307.068 261.85 306.255 267.542 L 306.255 267.542 L 333.31 267.542 L 333.31 267.542 Q 332.719 261.85 329.171 258.376 L 329.171 258.376 L 329.171 258.376 Q 325.622 254.902 320.078 254.902 L 320.078 254.902 Z " fill-rule="evenodd" id="Compound Path" fill="rgb(34,34,34)"/></g></g></svg>