<?xml version="1.0" encoding="UTF-8"?>
<svg width="316.97mm" height="221.93mm" enable-background="new" version="1.1" viewBox="0 0 316.97025 221.93312" xmlns="http://www.w3.org/2000/svg" xmlns:cc="http://creativecommons.org/ns#" xmlns:dc="http://purl.org/dc/elements/1.1/" xmlns:rdf="http://www.w3.org/1999/02/22-rdf-syntax-ns#">
<defs>
<filter id="a" color-interpolation-filters="sRGB">
<feBlend in2="BackgroundImage" mode="darken"/>
</filter>
<filter id="c" color-interpolation-filters="sRGB">
<feBlend in2="BackgroundImage" mode="darken"/>
</filter>
<filter id="b" color-interpolation-filters="sRGB">
<feBlend in2="BackgroundImage" mode="darken"/>
</filter>
</defs>
<metadata>
<rdf:RDF>
<cc:Work rdf:about="">
<dc:format>image/svg+xml</dc:format>
<dc:type rdf:resource="http://purl.org/dc/dcmitype/StillImage"/>
<dc:title/>
</cc:Work>
</rdf:RDF>
</metadata>
<g transform="translate(.84175 -78.847)" display="none" opacity=".26351">
<path d="m210.15 109.52c-0.01-0.34459-0.11504-0.68595-0.30051-0.97655-0.18548-0.29059-0.45086-0.52961-0.7592-0.68379-0.30835-0.15417-0.6588-0.22306-1.0026-0.19708-0.34375 0.026-0.67987 0.14676-0.96154 0.34552-0.18743 0.13226-0.34952 0.29694-0.50459 0.46599-0.39585 0.43154-0.76311 0.90638-1.2631 1.2112-0.41135 0.25078-0.89007 0.37167-1.3087 0.61018-0.43019 0.24512-0.7835 0.60739-1.0832 1.0015-0.25253 0.33216-0.47091 0.68975-0.6589 1.0622-0.18382 0.36425-0.34184 0.74783-0.6013 1.0627-0.38653 0.46909-0.95676 0.73851-1.4973 1.0164-0.27028 0.13897-0.53877 0.28424-0.78273 0.46547s-0.46393 0.40045-0.61572 0.66374c-0.15647 0.27141-0.23553 0.57973-0.30225 0.88583-0.0667 0.30609-0.12352 0.61669-0.24117 0.90704-0.22697 0.56012-0.66328 1.006-1.1034 1.4202-0.5646 0.53133-1.1588 1.043-1.6055 1.6767-0.66536 0.9438-0.963 2.0999-1.567 3.0841-0.62228 1.014-1.5543 1.8204-2.108 2.8734-0.47572 0.90454-0.64308 1.9353-0.783 2.9477-0.13993 1.0124-0.26328 2.043-0.66378 2.9833-0.44075 1.0348-1.2057 1.9308-1.4822 3.021-0.16725 0.65945-0.14444 1.3511-0.0955 2.0297 0.049 0.67856 0.12299 1.3605 0.0546 2.0374-0.0997 0.98694-0.49686 1.9169-0.71907 2.8837-0.46351 2.0166-0.13299 4.2012 0.88933 6.0002 0.26992 0.47497 0.58521 0.92289 0.8573 1.3966 0.27209 0.47372 0.50293 0.98082 0.58366 1.5211 0.0725 0.48553 0.0216 0.9799-0.0239 1.4687-0.0455 0.48881-0.0852 0.98565 9e-3 1.4674 0.0921 0.47038 0.31044 0.91053 0.59539 1.296 0.28495 0.38541 0.63549 0.71848 1.0087 1.0192 0.42241 0.34038 0.87606 0.64199 1.2826 1.0012 0.40653 0.3592 0.77064 0.78668 0.95347 1.2974 0.11949 0.33381 0.15729 0.69016 0.21969 1.0392s0.15467 0.70339 0.36463 0.98909c0.22397 0.30476 0.56288 0.50485 0.91014 0.65468s0.71227 0.25802 1.0515 0.4253c0.49982 0.24649 0.94334 0.62061 1.4824 0.76191 0.3026 0.0793 0.62899 0.0831 0.90794 0.22465 0.13947 0.0708 0.26461 0.17812 0.33306 0.31875 0.0342 0.0703 0.0537 0.14819 0.0532 0.22639-5.1e-4 0.0782-0.0213 0.15662-0.0626 0.22304-0.0401 0.0645-0.0978 0.11587-0.14925 0.17175-0.0515 0.0559-0.0989 0.1204-0.11054 0.19549-0.01 0.062 7e-3 0.12667 0.0393 0.18033 0.0326 0.0537 0.0807 0.0969 0.13441 0.12942 0.1074 0.0651 0.23409 0.0881 0.35592 0.11865 0.79943 0.20037 1.4568 0.7526 2.1914 1.1262 0.83504 0.42475 1.7652 0.61593 2.6633 0.88247 0.68241 0.20252 1.3548 0.45129 2.0577 0.56399 1.0923 0.17516 2.2064 0.0147 3.312-0.0229 0.63044-0.0214 1.2633-3e-3 1.8904-0.0707 0.9296-0.10076 1.8281-0.38985 2.7055-0.71304 0.89455-0.32951 1.7841-0.69867 2.7252-0.85087 0.57081-0.0923 1.1516-0.10312 1.7257-0.17198 0.57411-0.0689 1.1541-0.20112 1.6426-0.51056 0.61057-0.38679 1.0223-1.0112 1.5182-1.537 0.68941-0.73096 1.5493-1.2766 2.4163-1.7844 0.86702-0.50779 1.7561-0.98917 2.5386-1.6195 0.82111-0.66141 1.5066-1.4721 2.2071-2.2601 0.35009-0.39382 0.70738-0.78528 1.1222-1.1102 0.40767-0.31933 0.86422-0.56921 1.3054-0.84035s0.8743-0.56966 1.2094-0.9645c0.57236-0.67446 0.82022-1.5832 1.4185-2.2349 0.60209-0.65582 1.4811-0.97021 2.3284-1.2436 0.84729-0.27334 1.7313-0.5468 2.385-1.1512 0.32687-0.30217 0.58658-0.6863 0.69727-1.1175 0.11068-0.43116 0.0626-0.91018-0.17375-1.2874-0.11815-0.18862-0.28147-0.34963-0.47499-0.45958-0.19352-0.10994-0.41715-0.16798-0.63957-0.1597-0.22242 8e-3 -0.4428 0.0837-0.61992 0.2185-0.17711 0.13479-0.3094 0.32903-0.36395 0.54481-0.0212 0.0839-0.0309 0.1703-0.0456 0.25563-0.0147 0.0853-0.035 0.17086-0.0756 0.24736s-0.10347 0.14386-0.18408 0.17545c-0.0403 0.0158-0.0845 0.0223-0.12742 0.0167-0.0429-6e-3 -0.0845-0.0234-0.11677-0.0523-0.0381-0.0341-0.0621-0.0824-0.0711-0.13279-9e-3 -0.0504-4e-3 -0.1026 0.0108-0.15169 0.0287-0.0982 0.0911-0.1823 0.14806-0.26725 0.44097-0.65753 0.60473-1.466 1.0162-2.1424 0.22798-0.37471 0.52675-0.70021 0.79982-1.0434 0.27308-0.34325 0.52613-0.71543 0.63952-1.1391 0.10321-0.38565 0.0851-0.79254 0.0516-1.1904-0.0334-0.39782-0.0814-0.79834-0.0356-1.1949 0.0953-0.82342 0.58389-1.5524 0.74885-2.3647 0.1507-0.74212 0.0237-1.5079-0.0387-2.2626-0.0952-1.1496-0.039-2.3057 0.0111-3.4582 0.0716-1.646 0.1305-3.3003-0.062-4.9365-0.10391-0.88313-0.28434-1.768-0.66903-2.5697-0.27321-0.56938-0.64423-1.0862-0.94078-1.6438-0.45098-0.84795-0.72359-1.778-0.96348-2.708-0.21851-0.84711-0.4125-1.7007-0.6525-2.542-0.22844-0.80072-0.49848-1.59-0.69325-2.3996-0.20099-0.83542-0.33016-1.7132-0.78745-2.4406-0.2845-0.45259-0.68197-0.82208-1.0895-1.168s-0.83194-0.67606-1.1903-1.0728c-0.64999-0.71962-1.0549-1.6269-1.6547-2.3888-0.48415-0.61503-1.0863-1.1244-1.6523-1.6651-0.38878-0.37142-0.76511-0.76181-1.2114-1.0617-0.59129-0.39728-1.298-0.62294-2.0103-0.63237-0.55995-7e-3 -1.1174 0.11544-1.6765 0.0843-0.89565-0.0499-1.7193-0.48741-2.5907-0.70025-0.48729-0.11902-0.9897-0.16746-1.4912-0.17907-1.8902-0.0438-3.7653 0.43365-5.507 1.1694-1.1185 0.47249-2.1937 1.0533-3.1784 1.7638-0.7963 0.57453-1.536 1.2351-2.396 1.7091-1.3173 0.72605-2.8909 0.97538-4.3681 0.6921" fill="none" stroke="#000" stroke-width=".26458px"/>
<path d="m191.26 123.13c-0.2858-0.61327-0.37201-1.3176-0.24255-1.9818 0.12947-0.66409 0.47395-1.2845 0.96918-1.7455 0.47892-0.44582 1.0795-0.73469 1.6172-1.1075 0.37541-0.26033 0.72624-0.56842 0.97086-0.95425 0.24575-0.3876 0.3814-0.84797 0.69275-1.1852 0.22311-0.24162 0.52392-0.40277 0.83974-0.49449 0.31583-0.0917 0.64741-0.11734 0.97628-0.11722 0.65775 2.3e-4 1.3247 0.10045 1.9677-0.0381 0.32149-0.0693 0.63432-0.20063 0.88419-0.41447 0.24987-0.21383 0.43253-0.51506 0.46791-0.84203 0.0177-0.16348-2e-3 -0.33144-0.0606-0.48492-0.059-0.15348-0.15822-0.29201-0.28773-0.39334-0.12951-0.10132-0.28932-0.16459-0.45347-0.17433-0.16415-0.01-0.33185 0.0349-0.4666 0.12918-0.14076 0.0984-0.24046 0.24466-0.3256 0.39385-0.0851 0.14918-0.15963 0.30564-0.26489 0.44138-0.0526 0.0679-0.11295 0.1303-0.18274 0.18035-0.0698 0.0501-0.14935 0.0875-0.23373 0.10352-0.0844 0.016-0.17368 0.01-0.25301-0.023-0.0793-0.0329-0.14796-0.0934-0.18543-0.17069-0.0376-0.0775-0.0426-0.16775-0.0282-0.25266 0.0144-0.0849 0.0472-0.16555 0.0826-0.24404 0.45782-1.0142 1.3661-1.7449 2.2756-2.3859 2.1465-1.5127 4.4786-2.7498 6.6056-4.2899 1.3748-0.99547 2.6567-2.1123 3.9823-3.1724 3.5855-2.8675 7.4909-5.3196 11.543-7.477 1.3161-0.70066 2.6483-1.3707 3.9831-2.0351 1.727-0.85961 3.4595-1.7103 5.1435-2.6514 1.7283-0.96576 3.4053-2.0265 5.1805-2.903 3.8694-1.9107 8.1203-2.9066 12.122-4.523 1.9603-0.79188 3.8647-1.7342 5.8843-2.3598 2.0094-0.62243 4.1142-0.92505 6.0854-1.6596 1.661-0.61892 3.213-1.5395 4.932-1.9719 1.6616-0.418 3.4109-0.36168 5.0831-0.73511 1.5037-0.3358 2.9084-1.0104 4.3794-1.469 3.309-1.0315 6.905-0.95643 10.155-2.1614 0.54661-0.20267 1.0822-0.44174 1.5738-0.75515 0.3129-0.1995 0.61545-0.43251 0.97373-0.52916 0.17914-0.04832 0.37077-0.06019 0.55017-0.01283s0.34539 0.15742 0.44154 0.3161c0.0542 0.08938 0.0851 0.19081 0.13306 0.28364 0.10261 0.19838 0.28613 0.35336 0.49889 0.42131 0.21276 0.06794 0.45215 0.04801 0.65074-0.05418 0.19859-0.10219 0.35396-0.28539 0.42235-0.49801 0.0684-0.21262 0.049-0.45204-0.0528-0.65085" fill="none" stroke="#000" stroke-width=".26458px"/>
<path d="m211.67 174.54c0.0912-1.5618 0.99607-3.0537 2.339-3.8564 0.51657-0.30876 1.0858-0.51791 1.622-0.79106 0.99681-0.50775 1.8686-1.2305 2.8429-1.7802 0.93663-0.5284 1.9717-0.89957 2.8093-1.5741 0.66813-0.53809 1.1778-1.2436 1.7733-1.8611 1.0709-1.1104 2.4062-1.9234 3.7271-2.7203 2.5164-1.5181 5.0398-3.0246 7.5645-4.5289 1.1704-0.69736 2.345-1.3969 3.414-2.2416 0.57369-0.45328 1.1145-0.94643 1.6727-1.4186 1.7131-1.449 3.5848-2.696 5.4109-3.9997 1.2911-0.92176 2.561-1.873 3.8201-2.838 2.2779-1.7456 4.5232-3.5377 6.6446-5.4706 3.4388-3.1332 6.5357-6.621 9.8894-9.8451 2.1997-2.1147 4.5186-4.1252 6.4386-6.4966 1.1255-1.3902 2.1169-2.9072 3.4503-4.0995 1.1837-1.0584 2.6164-1.8411 3.6573-3.0402 0.47693-0.54942 0.85918-1.1729 1.2745-1.7703 0.41527-0.59738 0.87368-1.179 1.4639-1.6044 0.56845-0.40964 1.2342-0.6569 1.8732-0.9444 0.63898-0.2875 1.2769-0.63446 1.7122-1.1835 0.36284-0.45769 0.55817-1.0219 0.75924-1.5702 0.20107-0.54837 0.42332-1.1073 0.82461-1.5317 0.32743-0.34628 0.75314-0.58035 1.1715-0.80858 0.41837-0.22823 0.84424-0.46186 1.1723-0.80752 0.28817-0.3036 0.48683-0.67902 0.68487-1.0478 0.19804-0.36878 0.4033-0.7417 0.70108-1.0359 0.45963-0.45409 1.0992-0.67951 1.7339-0.80058 0.15967-0.0305 0.32383-0.0563 0.46672-0.13385 0.11364-0.0616 0.20983-0.15506 0.27476-0.26686 0.0649-0.1118 0.0984-0.24164 0.0956-0.3709-3e-3 -0.12925-0.0418-0.25754-0.11149-0.36644-0.0697-0.1089-0.16979-0.1981-0.28598-0.25479" fill="none" stroke="#000" stroke-width=".26458px"/>
<path d="m290.29 72.482c0.0956 0.08963 0.1555 0.21636 0.16405 0.34714 9e-3 0.13077-0.0343 0.26423-0.11747 0.36554-0.0831 0.10131-0.20564 0.16943-0.33556 0.18658-0.12993 0.01715-0.26592-0.01684-0.37249-0.09311-0.0951-0.06807-0.1665-0.16959-0.1951-0.28301s-0.0135-0.23789 0.0444-0.33954 0.15854-0.17874 0.27254-0.20496c0.11399-0.02622 0.23959-1.73e-4 0.33179 0.07182 0.0346 0.02704 0.0643 0.05984 0.0925 0.09356 0.21595 0.25861 0.35061 0.58146 0.39807 0.91502 0.0475 0.33356 9e-3 0.67715-0.0952 0.99746-0.20892 0.64064-0.67411 1.1738-1.2162 1.5739-1.0843 0.80035-2.4587 1.1094-3.5931 1.837-0.38257 0.24536-0.73383 0.53586-1.1009 0.8038-0.67602 0.49341-1.4086 0.91244-2.0373 1.4648-0.55923 0.49136-1.0298 1.0828-1.6268 1.5274-0.95118 0.70834-2.1571 0.99632-3.1386 1.662-0.88299 0.59893-1.5374 1.4698-2.2083 2.2994-1.6228 2.0065-3.4426 3.8657-5.5122 5.4071-1.027 0.7649-2.1138 1.4506-3.0999 2.2676-1.0132 0.83942-1.9308 1.8243-3.1017 2.4245-0.33412 0.17127-0.68829 0.31083-0.98831 0.53656-0.15002 0.11287-0.28554 0.24739-0.38547 0.40631-0.0999 0.15892-0.16321 0.34325-0.16529 0.53097-9.1e-4 0.08152 0.01 0.16271 0.0133 0.24415 0.0183 0.39912-0.12886 0.79615-0.36913 1.1154-0.24026 0.31923-0.56894 0.56458-0.92478 0.74627-0.71168 0.36338-1.5197 0.4779-2.2882 0.6971-1.6421 0.46842-3.1445 1.4515-4.1759 2.8125-0.20162 0.26607-0.38571 0.54616-0.60679 0.7963-0.22107 0.25014-0.48485 0.47255-0.79823 0.5876-0.26041 0.0956-0.5431 0.11314-0.80864 0.1934-0.13277 0.0401-0.26215 0.0967-0.37172 0.18172-0.10958 0.085-0.19865 0.2003-0.23706 0.33358-0.0402 0.13956-0.0234 0.2881-0.0222 0.43334 6.1e-4 0.0726-3e-3 0.14576-0.0193 0.21649-0.0165 0.0707-0.0466 0.13931-0.0945 0.19388-0.0407 0.0463-0.0939 0.0817-0.15279 0.1-0.0589 0.0182-0.12324 0.0191-0.18217 1e-3 -0.0589-0.0181-0.11207-0.0552-0.14818-0.10517-0.0361-0.05-0.0548-0.11256-0.0505-0.17405 3e-3 -0.0494 0.0214-0.0973 0.0493-0.1382 0.0279-0.0408 0.0657-0.0747 0.10816-0.10001 0.085-0.0507 0.18707-0.0668 0.28597-0.0628 0.1978 8e-3 0.38672 0.0915 0.58453 0.0992 0.18522 7e-3 0.36938-0.0537 0.52557-0.15354 0.15618-0.0998 0.28588-0.23703 0.39443-0.38728 0.21708-0.3005 0.3522-0.65221 0.55108-0.96506 0.45199-0.71103 1.2406-1.1923 2.0776-1.2893 0.74817-0.0867 1.4956 0.11601 2.227 0.29552s1.4986 0.33762 2.2314 0.16376c0.36642-0.0869 0.71713-0.25952 0.98463-0.52459 0.26749-0.26508 0.44653-0.62641 0.45957-1.0028 7e-3 -0.18818-0.0282-0.3782-0.10508-0.55007-0.0769-0.17186-0.19636-0.32513-0.34709-0.43799-0.15073-0.11285-0.33269-0.18459-0.52033-0.2003-0.18764-0.0157-0.38032 0.0253-0.54302 0.12006-0.18921 0.11021-0.33058 0.28584-0.45711 0.46454-0.12654 0.1787-0.24442 0.36639-0.40388 0.51645-0.0797 0.075-0.16973 0.1401-0.26969 0.18475-0.1 0.0447-0.21025 0.0684-0.31945 0.0606-0.1092-8e-3 -0.21707-0.0483-0.29939-0.12047-0.0823-0.0722-0.13734-0.17682-0.14236-0.28619-5e-3 -0.11156 0.0407-0.22077 0.10715-0.31055 0.0664-0.0898 0.15259-0.16274 0.2389-0.23361 0.69731-0.57255 1.4585-1.065 2.2534-1.4918 0.98466-0.52859 2.024-0.95858 2.9659-1.5601 1.0229-0.65332 1.9154-1.4995 2.9614-2.1151 1.1738-0.69082 2.5004-1.0684 3.8059-1.4567 2.4865-0.73953 4.9813-1.5546 7.1923-2.9115 0.85169-0.52269 1.6545-1.1219 2.5074-1.6427 1.1371-0.69432 2.3559-1.2447 3.5125-1.9062 0.62222-0.35582 1.2257-0.74332 1.8342-1.1221 0.23199-0.1444 0.46584-0.28813 0.71724-0.39523 0.25139-0.1071 0.5228-0.17698 0.79586-0.16662 0.36651 0.0139 0.71126 0.16951 1.0702 0.24471 0.66077 0.13842 1.3643-0.0047 1.9545-0.33259 0.24346-0.13527 0.46896-0.3003 0.70573-0.44696s0.48911-0.27644 0.76221-0.33108c0.39347-0.07871 0.81579 0.0089 1.1507 0.22982 0.31661 0.20885 0.5551 0.52793 0.89199 0.70219 0.11587 0.05993 0.24045 0.10104 0.35921 0.155 0.11877 0.05396 0.2345 0.12327 0.31452 0.22629 0.0599 0.07717 0.0973 0.17072 0.11316 0.26715 0.0158 0.09642 0.0106 0.19568-9e-3 0.29134-0.0398 0.19134-0.13621 0.36574-0.23841 0.53232-0.24018 0.39149-0.5307 0.7688-0.92849 0.9984-0.13413 0.07742-0.27793 0.13651-0.41589 0.20687-0.13796 0.07036-0.2723 0.15386-0.37435 0.27035-0.051 0.05825-0.0935 0.12446-0.12129 0.19672-0.0278 0.07226-0.0408 0.15068-0.0337 0.22779 7e-3 0.07711 0.0347 0.15276 0.0822 0.21395 0.0475 0.06119 0.11503 0.10729 0.19033 0.12537 0.0564 0.01354 0.11513 0.01144 0.17309 0.01324 0.38644 0.01202 0.75859 0.2082 1.0055 0.50572s0.37046 0.68937 0.36312 1.0759c-7e-3 0.38656-0.14139 0.76624-0.35823 1.0863-0.21684 0.3201-0.51411 0.58188-0.84686 0.77876-0.66549 0.39376-1.4536 0.52549-2.2256 0.57025-0.77196 0.04476-1.5491 0.01017-2.3165 0.10483-1.9062 0.23512-3.6409 1.2587-5.0765 2.5348s-2.6169 2.8064-3.852 4.2773c-0.59222 0.70525-1.2037 1.4036-1.9316 1.9677-1.2542 0.97206-2.8041 1.5077-4.05 2.4904-0.88331 0.69668-1.5862 1.5967-2.4441 2.3245-0.81849 0.6944-1.7925 1.2318-2.85 1.4155-0.34587 0.0601-0.70768 0.0852-1.0177 0.24988-0.15501 0.0823-0.29413 0.20054-0.38177 0.35263-0.0876 0.15208-0.11979 0.33979-0.0671 0.50723 0.0345 0.10968 0.1026 0.20575 0.17787 0.29265 0.0753 0.0869 0.1587 0.16665 0.23116 0.25591 0.13523 0.16658 0.23109 0.36795 0.25712 0.58092 0.026 0.21298-0.0209 0.43718-0.14506 0.61219-0.0621 0.0875-0.14266 0.16209-0.23588 0.21519-0.0932 0.0531-0.19902 0.0845-0.30623 0.0885-0.1072 4e-3 -0.21561-0.0197-0.31036-0.07-0.0948-0.0503-0.17547-0.12737-0.22812-0.22084-0.0885-0.15718-0.0933-0.35139-0.0466-0.52565 0.0467-0.17425 0.1406-0.33196 0.24178-0.48132 0.88869-1.3119 2.3507-2.0931 3.7325-2.8686 1.453-0.81541 2.8796-1.6792 4.2563-2.6177 4.8208-3.286 8.9778-7.4486 13.632-10.967 1.7161-1.2974 3.4974-2.5054 5.253-3.7489 1.5596-1.1047 3.1018-2.2393 4.7429-3.2187 1.3677-0.81628 2.7983-1.5212 4.2011-2.2757 2.0303-1.092 4.0096-2.2926 5.819-3.721 1.6589-1.3095 3.1704-2.8067 4.9068-4.0116 1.726-1.1976 3.6432-2.0852 5.4921-3.0828 2.1997-1.1869 4.3091-2.5335 6.4858-3.762 2.4788-1.399 5.0629-2.6566 7.277-4.4454 0.49122-0.39685 0.96267-0.81884 1.4012-1.2732 0.31228-0.32359 0.60983-0.66538 0.96719-0.93837 0.35735-0.273 0.78762-0.47628 1.2373-0.4725 0.15416 0.0013 0.30917 0.02731 0.45115 0.08738s0.27059 0.1552 0.36051 0.28042c0.12578 0.17516 0.16938 0.40151 0.14368 0.61562s-0.11659 0.41664-0.23758 0.59515c-0.24199 0.35701-0.59729 0.6192-0.89135 0.93471-0.56894 0.61046-0.89617 1.4056-1.4009 2.0702-0.86282 1.136-2.1776 1.816-3.4004 2.5506-3.3097 1.9883-6.203 4.6026-8.8727 7.3918-0.93798 0.97997-1.8524 1.9847-2.8512 2.9026-2.3556 2.1645-5.1442 3.8125-7.5233 5.9512-1.514 1.361-2.8486 2.9087-4.316 4.3198-2.8595 2.7496-6.1899 4.9504-9.3613 7.3336-2.9353 2.2058-5.7442 4.5761-8.4771 7.0281-3.532 3.1689-6.9429 6.479-10.637 9.4573-2.4882 2.0061-5.1052 3.862-7.432 6.0532-2.029 1.9108-3.8269 4.0671-5.9688 5.8504-2.3774 1.9793-5.1293 3.4579-7.594 5.3273-2.169 1.645-4.0985 3.5793-6.1163 5.4067-2.2011 1.9935-4.511 3.8629-6.8279 5.7205-1.6868 1.3524-3.3781 2.6992-5.0739 4.0404" fill="none" stroke="#000" stroke-width=".26458px"/>
<path d="m233.59 95.161c0.64146 0.01797 1.2825-0.30772 1.6462-0.8364 0.32853-0.47753 0.42509-1.0722 0.5124-1.6453 0.0873-0.57302 0.18194-1.1677 0.50761-1.6471 0.30519-0.44933 0.78161-0.74942 1.2559-1.0141 1.6462-0.91875 3.4276-1.5664 5.2078-2.1868 1.7821-0.62109 3.5828-1.2237 5.2374-2.1314 1.0884-0.59709 2.102-1.32 3.1565-1.9752 1.4766-0.91749 3.0389-1.7043 4.6809-2.2752 1.8504-0.64327 3.7881-1.0082 5.6409-1.6446 1.8577-0.6381 3.6107-1.5422 5.4114-2.3268 2.4524-1.0685 4.994-1.9155 7.5135-2.8147 2.145-0.76549 4.2767-1.5698 6.4423-2.2748 1.6161-0.52609 3.255-0.9983 4.8089-1.6868 1.5109-0.66943 2.9277-1.5375 4.4414-2.2004 2.3695-1.0377 4.9354-1.5556 7.3359-2.5192 3.199-1.2841 6.0501-3.3372 9.2723-4.5619 1.0833-0.41173 2.2004-0.72656 3.3129-1.0512 1.8713-0.54618 3.7359-1.1223 5.6371-1.5532 1.5645-0.35456 3.1573-0.61186 4.6721-1.1398 2.2116-0.77072 4.2374-2.1109 6.546-2.5056 0.7279-0.12444 1.4761-0.15109 2.2051-0.03341 0.23314 0.03764 0.46499 0.09001 0.70099 0.09883 0.236 0.0088 0.48134-0.02955 0.67866-0.15931 0.15934-0.10479 0.27628-0.26093 0.39729-0.40833s0.25554-0.29354 0.43209-0.36566c0.10752-0.04392 0.22551-0.05781 0.34161-0.0543 0.11609 0.0035 0.23098 0.0239 0.34493 0.04641 0.22789 0.04502 0.46367 0.09877 0.68959 0.0447 0.21185-0.0507 0.39116-0.19168 0.54151-0.34931s0.27911-0.33522 0.43471-0.48767c0.1556-0.15245 0.34602-0.28189 0.56192-0.31088 0.10794-0.01449 0.22035-0.0027 0.32001 0.04126 0.0996 0.04395 0.18572 0.12104 0.23355 0.2189 0.0483 0.09885 0.056 0.21467 0.0334 0.32234s-0.0741 0.20773-0.13825 0.29709c-0.21599 0.30073-0.56871 0.47785-0.92786 0.5679-0.35914 0.09005-0.73221 0.10383-1.1002 0.14429-0.49893 0.05486-0.99238 0.15955-1.4706 0.31202" fill="none" stroke="#000" stroke-width=".26458px"/>
<path d="m191.26 123.13c1.5348-3.1232 3.9598-5.8028 6.9147-7.6408 1.4696-0.91412 3.0907-1.6434 4.2977-2.8837 0.82054-0.84317 1.4078-1.8822 2.1442-2.7997 1.1355-1.4148 2.6088-2.52 4.131-3.5068 1.5222-0.98688 3.1114-1.8726 4.5806-2.9369 1.8698-1.3546 3.5286-2.9864 5.4247-4.3039 2.2996-1.5978 4.909-2.7062 7.2158-4.2935 1.7382-1.1961 3.2817-2.6481 4.8678-4.0395 0.96607-0.84746 1.9553-1.6779 3.0536-2.3452s2.3159-1.1697 3.5933-1.3096c1.3797-0.15113 2.7651 0.12267 4.1386 0.32235s2.8065 0.32105 4.1228-0.11887c0.65817-0.21996 1.2758-0.58262 1.7461-1.0929 0.47031-0.51028 0.78633-1.1731 0.82862-1.8658 0.0423-0.69267-0.20353-1.4093-0.70271-1.8914-0.24959-0.24104-0.5584-0.42161-0.89294-0.51368-0.33455-0.09206-0.69427-0.09462-1.0281-9.1e-5 -0.21893 0.06198-0.42445 0.16407-0.641 0.23392-0.56029 0.18073-1.1656 0.13823-1.7512 0.07764-0.5856-0.06059-1.1818-0.13694-1.7586-0.01907-0.2884 0.05893-0.56921 0.16749-0.80812 0.33944-0.23892 0.17195-0.43444 0.40958-0.53392 0.68661-0.0995 0.27704-0.0979 0.59366 0.0268 0.8603 0.0623 0.13332 0.15444 0.25302 0.26936 0.34497 0.11492 0.09195 0.25267 0.15577 0.3977 0.18085 0.2518 0.04355 0.51222-0.03064 0.73632-0.15345 0.22409-0.1228 0.41855-0.29207 0.61526-0.45518 2.8729-2.3821 6.4879-3.6321 9.8091-5.3341 2.874-1.4729 5.5505-3.2996 8.3504-4.909 2.9021-1.6682 5.933-3.1007 8.9827-4.4808 6.7339-3.0472 13.577-5.8477 20.448-8.5711 3.1599-1.2524 6.3287-2.4896 9.5653-3.5277 2.1088-0.67637 4.2451-1.2678 6.3361-1.9973 1.1253-0.3926 2.2421-0.82753 3.2721-1.4271 0.4699-0.27351 0.91998-0.58029 1.3931-0.84817 1.8497-1.0473 3.9772-1.4634 6.0474-1.9451 2.3109-0.53761 4.5974-1.1743 6.8952-1.7656 2.0611-0.53039 4.1314-1.0243 6.2063-1.498 2.4333-0.55553 4.8799-1.0843 7.3641-1.3257 3.3756-0.32791 6.843-0.13011 10.09-1.1095 0.27948-0.0843 0.55826-0.17755 0.84768-0.21566 0.28943-0.03811 0.59497-0.01742 0.8543 0.11662 0.15753 0.08142 0.29417 0.20364 0.39013 0.35277 0.096 0.14912 0.15071 0.32492 0.15346 0.50223 5e-3 0.2904-0.12967 0.57075-0.32244 0.78799s-0.44078 0.37805-0.69573 0.51717c-0.86281 0.47084-1.8259 0.71801-2.7598 1.0247-1.2828 0.42131-2.5232 0.96044-3.7816 1.4499-1.2571 0.48896-2.5339 0.92894-3.7727 1.4627-1.5206 0.65515-2.9793 1.4496-4.5137 2.0716-2.2717 0.9209-4.6964 1.4587-6.8942 2.5443-1.6207 0.80054-3.0854 1.8833-4.6709 2.7515-1.4735 0.80687-3.0493 1.4272-4.4679 2.3272-1.1731 0.74418-2.2198 1.6676-3.3153 2.5218-1.1123 0.86733-2.2802 1.6668-3.5181 2.3429-1.2774 0.69761-2.6238 1.261-3.9119 1.9386-0.94259 0.49584-1.8536 1.0528-2.7162 1.6774-1.3877 1.0047-2.6447 2.1797-4.0232 3.1971-2.5138 1.8553-5.3906 3.1574-7.9953 4.8828-1.2936 0.8569-2.5179 1.8169-3.675 2.8508-0.40933 0.36572-0.81425 0.74364-1.2868 1.0228-0.4726 0.27918-1.0274 0.45526-1.5706 0.3765-0.18063-0.02619-0.35733-0.07995-0.53949-0.09131-0.26602-0.01658-0.53346 0.05967-0.76401 0.1934-0.23056 0.13373-0.42574 0.32297-0.5873 0.53495-0.32312 0.42397-0.51222 0.9317-0.74161 1.4129-0.13229 0.27751-0.28024 0.5498-0.47318 0.78915-0.19293 0.23935-0.43359 0.44568-0.71666 0.56562-0.33105 0.14026-0.70038 0.15605-1.0469 0.25196-0.17325 0.04796-0.34295 0.11727-0.48595 0.2262-0.143 0.10893-0.25815 0.26037-0.30111 0.43493-0.0393 0.15961-0.0148 0.33505 0.0716 0.47484 0.0865 0.1398 0.23496 0.24096 0.39762 0.26458 0.14755 0.02143 0.29991-0.01983 0.42802-0.09612s0.23376-0.18579 0.32322-0.30507c0.17892-0.23857 0.29894-0.52003 0.49922-0.74097 0.15275-0.1685 0.34754-0.29561 0.55591-0.38675 0.20836-0.09114 0.4305-0.14742 0.65442-0.18722 0.44783-0.07961 0.90749-0.09505 1.347-0.21204 0.71746-0.19096 1.3367-0.63976 1.9082-1.1138 0.42545-0.35293 0.83529-0.7253 1.2773-1.0572 1.8979-1.425 4.2665-2.0252 6.5017-2.8231 2.6263-0.93749 5.1306-2.1806 7.6599-3.355 2.2879-1.0623 4.6114-2.074 7.0451-2.7376 1.4864-0.4053 3.0055-0.67841 4.5001-1.0523 1.3254-0.33161 2.6296-0.74201 3.9416-1.1232 0.69671-0.20243 1.4095-0.39842 2.1346-0.3726 0.36254 0.01291 0.72535 0.08257 1.0572 0.22913 0.33184 0.14656 0.63197 0.3721 0.84485 0.66583 0.28285 0.39028 0.39925 0.8811 0.41504 1.3628 0.0245 0.74686-0.17978 1.492-0.52913 2.1525-0.34935 0.66056-0.84005 1.2397-1.3946 1.7405-0.90943 0.82131-1.9837 1.4338-2.985 2.1403-1.1313 0.79832-2.1706 1.7179-3.2339 2.6048-0.34632 0.28884-0.69682 0.57571-0.99917 0.91029s-0.5572 0.72192-0.67931 1.156c-0.0727 0.25831-0.0971 0.52814-0.16774 0.78702-0.11375 0.41714-0.34621 0.79677-0.64095 1.1131-0.29474 0.31634-0.65056 0.57153-1.0284 0.7818-0.75559 0.42053-1.5948 0.66331-2.3929 0.99611-1.5622 0.6514-2.9575 1.6438-4.2835 2.6958-1.217 0.96545-2.3926 1.9913-3.705 2.8224-0.96182 0.60914-1.9915 1.11-2.924 1.7631-1.5136 1.0602-2.771 2.5196-4.4662 3.2553-0.30813 0.13372-0.62705 0.24157-0.93412 0.37772-0.30706 0.13615-0.60545 0.30325-0.84542 0.53828-0.14021 0.13732-0.2611 0.3011-0.31368 0.49017-0.0263 0.09454-0.0349 0.19449-0.0201 0.2915 0.0148 0.097 0.0534 0.19092 0.1151 0.26721 0.062 0.0766 0.1463 0.13418 0.23887 0.16793 0.0926 0.0337 0.1931 0.044 0.2911 0.0338 0.196-0.0204 0.37733-0.12135 0.52188-0.25529 0.28909-0.26787 0.4356-0.65173 0.65437-0.97954 0.33874-0.50758 0.85084-0.87731 1.3932-1.1569 0.54241-0.27961 1.1219-0.47879 1.6836-0.71727 0.90538-0.3844 1.7636-0.87054 2.6126-1.3672 2.1565-1.2616 4.2679-2.5983 6.3858-3.9235 1.6464-1.0302 3.3068-2.0587 5.1048-2.7929 1.2158-0.49646 2.4949-0.85877 3.6301-1.5189 0.99679-0.57964 1.8668-1.3804 2.927-1.8337 0.96464-0.41246 2.0296-0.5127 3.075-0.60077 1.5108-0.12728 3.0602-0.24879 4.4361-0.88571 0.4455-0.20623 0.87226-0.46628 1.349-0.58321 0.38511-0.09444 0.8009-0.08911 1.169 0.05826 0.36812 0.14737 0.68254 0.44518 0.80952 0.82082 0.0771 0.22815 0.0842 0.47708 0.0376 0.71337-0.0466 0.23629-0.14533 0.46042-0.27308 0.66458-0.25043 0.40021-0.6081 0.7221-0.98416 1.0075s-0.77532 0.54013-1.1408 0.83903c-1.1566 0.94605-1.9138 2.2786-2.7852 3.4924-1.5935 2.2197-3.6248 4.0994-5.8256 5.7189-2.321 1.708-4.8664 3.1629-6.832 5.2702-1.0773 1.1549-1.9581 2.484-3.0634 3.6122-0.55265 0.56407-1.1631 1.0779-1.8501 1.4672s-1.4542 0.65159-2.2426 0.69646c-0.24347 0.0139-0.48807 7e-3 -0.73082 0.0304-0.24275 0.0233-0.48745 0.0786-0.69531 0.20613-0.10392 0.0638-0.19756 0.14533-0.2701 0.24335-0.0725 0.098-0.12355 0.21272-0.14174 0.33329-0.0182 0.12056-3e-3 0.24686 0.0493 0.35709 0.0521 0.11024 0.14161 0.20345 0.25224 0.25471 0.12481 0.0578 0.27094 0.0603 0.40345 0.0235 0.13252-0.0369 0.25239-0.11094 0.35747-0.19969 0.21017-0.17752 0.36448-0.41274 0.5686-0.59718 0.23505-0.21239 0.53373-0.35205 0.84642-0.40291 0.31269-0.0508 0.63836-0.0136 0.93398 0.10031 0.29562 0.11388 0.56085 0.3035 0.76945 0.54193 0.20859 0.23843 0.36072 0.52497 0.44798 0.82952 0.17452 0.60909 0.0834 1.2802-0.20151 1.8461-0.28495 0.56591-0.75436 1.0287-1.2987 1.353-1.0886 0.64859-2.4197 0.74108-3.6845 0.66355-1.2648-0.0775-2.5253-0.30786-3.7906-0.23916-1.3529 0.0735-2.6746 0.49067-3.8769 1.1155-1.2022 0.62485-2.2897 1.4539-3.2864 2.3717-1.9935 1.8356-3.6303 4.0223-5.5313 5.9535-3.588 3.645-8.0322 6.3017-12.167 9.3126-4.9041 3.5713-9.3999 7.665-14.042 11.571-6.6605 5.6038-13.63 10.827-20.498 16.175-2.3738 1.8486-4.7362 3.7127-7.0409 5.6468-1.5344 1.2876-3.0458 2.6083-4.6828 3.7626-3.6122 2.547-7.8168 4.248-12.184 4.929" fill="none" stroke="#000" stroke-width=".26458px"/>
<path d="m30.835 288.98c-0.2222-3.9284-0.27363-7.8619-0.13579-11.793 0.37066-7.6853 0.99525-15.362 1.8119-23.013 0.85822-7.9058 1.6546-15.82 2.1359-23.758 0.04614-1.0008 0.09227-2.0017 0.13841-3.0025l2.383-1.1959c-0.07726 1.0179-0.15452 2.0358-0.23178 3.0536-0.72885 7.988-1.704 15.95-2.4744 23.934-0.76171 7.5527-1.1969 15.146-1.3109 22.737 0.03117 3.7927 0.10506 7.6295 0.84432 11.362l-3.1606 1.6767z" stroke-width="965"/>
<path d="m32.565 232.29c1.0388-2.6197 1.3789-5.4698 1.8656-8.231 1.2008-5.2802 2.3696-10.555 3.2322-15.905 0.67868-5.0907 1.789-10.094 2.8681-15.109l2.7025-1.301c-1.2287 5.0401-2.475 10.07-3.1522 15.225-0.81276 5.2863-1.9105 10.51-2.926 15.756-0.38666 2.6892-0.59469 5.4293-1.3218 8.0536l-3.2684 1.5116z" stroke-width="965"/>
<path d="m39.472 193.63c1.0282-2.2354 2.1999-4.3549 3.7155-6.2945 2.4708-2.8035 5.8586-4.427 9.0647-6.2228 0.95816-0.49168 1.9816-0.80283 3.0128-1.093l-2.7097 2.0873c-0.99781 0.29448-1.9874 0.60997-2.9117 1.0996 0.60566-0.36654 1.2263-0.70932 1.817-1.0996 0.33168-0.21916-0.69966 0.37844-1.039 0.58554-1.5356 0.9372-3.0076 1.9985-4.2085 3.3491-1.4934 1.8517-2.7072 3.8664-3.5002 6.1222l-3.2408 1.4663z" stroke-width="965"/>
<path d="m42.372 190.04c1.3561-2.0426 2.7703-4.0053 4.4324-5.8114 3.1383-2.7057 6.6538-5.1235 10.63-6.3787 2.5729-0.57908 5.3168-0.092 7.7518 0.84834 1.2303 0.64989 2.403 1.4123 3.5621 2.1827l-2.8789 1.8407c-1.1227-0.77194-2.2771-1.5108-3.4836-2.1436-2.3783-0.93319-5.0183-1.3906-7.5258-0.73017-0.44164 0.15065-0.89402 0.27289-1.3249 0.45195-0.45475 0.18896-1.4533 1.1258-1.3267 0.64989 0.1398-0.52572 0.86806-1.0376 1.3839-0.86494 0.49465 0.16561-0.86181 0.58845-1.2805 0.89955-0.32738 0.24324-2.2 1.7314-2.5374 1.9989-1.5703 1.7176-2.937 3.541-4.094 5.5599l-3.3085 1.4968z" stroke-width="965"/>
<path d="m58.61 177.25c2.1493 0.64457 4.1165 1.7616 5.8592 3.1584 2.0222 1.8438 3.0315 4.2331 3.723 6.8171 0.52436 2.5588 0.767 4.9329-0.10913 7.4259-0.22044 0.36392-0.44088 0.72784-0.66132 1.0918l-3.0392 1.3386c0.22466-0.34063 0.44932-0.68127 0.67398-1.0219 0.95406-2.4165 0.73776-4.7492 0.2293-7.2601-0.62427-2.523-1.6498-4.8543-3.6261-6.625-1.7299-1.3568-3.7523-2.5476-5.9733-2.8006l2.9236-2.1241z" stroke-width="965"/>
<path d="m53.296 199.81c-0.33024 0.29407 1.4782-0.68521 1.123-0.48484-5.8429 3.2968-1.4446 0.65103 0.65549-0.24289 0.09799-0.0417 0.18326 0.10853 0.27489 0.1628 1.7036 0.58053 3.5612-0.3645 5.0672-1.1018-0.52774 0.30021-0.9814 0.8203-1.5832 0.90065-0.5104 0.0681 0.86354-0.56175 1.2829-0.86056 0.4154-0.29598 0.82623-0.59937 1.2204-0.9231 1.1144-0.91532 2.0223-1.9578 2.9402-3.0611 0.65361-0.89913 1.3106-1.7498 1.8238-2.7358l3.1126-1.4033c-0.53182 1.0371-1.2155 1.9146-1.9081 2.8524-2.6307 3.1544-5.7025 5.4964-9.4558 7.2774-1.7144 0.80467-3.6393 1.6906-5.5556 1.0809-1.4122-0.4655-0.48997-0.0812 2.7884-1.9315 0.05636-0.0318-0.0534 0.12655-0.10796 0.16136-1.6342 1.0427-2.8252 1.9778-4.5566 2.4889l2.8785-2.1794z" stroke-width="965"/>
<path d="m52.407 197.43c0.86074 1.5691 2.9056 1.3552 4.4431 1.3314 1.542-0.21751 3.1654-0.46119 4.607-1.0906 0.36265-0.15835 1.3865-0.7633 1.0439-0.56524-0.58596 0.33876-1.1828 0.6583-1.7742 0.98746 2.2748-1.2533 3.6001-3.3493 4.992-5.4376 0.8007-1.2663 0.42944-0.61861 1.1146-1.9425l3.0672-1.3864c-0.67223 1.3673-0.29789 0.70294-1.1242 1.9925-1.4177 2.0899-2.6795 4.2806-4.9557 5.578-3.5405 2.0726-5.6579 3.5625-9.7135 3.8619-1.7554 0.0121-3.7545 0.0943-4.8559-1.5321l3.1556-1.7968z" stroke-width="965"/>
<path d="m59.682 196.83c-1.3493 2.3162-1.859 5.0035-2.4674 7.5832-0.97615 4.3877-1.2273 8.8869-1.3686 13.366-0.13103 3.2526-0.04283 6.5177 0.59199 9.7165 0.10966 0.29704 0.21932 0.59409 0.32899 0.89113l-2.9958 1.6499c-0.09699-0.3227-0.19398-0.6454-0.29097-0.9681-0.51606-3.291-0.42304-6.6388-0.27482-9.9565 0.19471-4.4647 0.40878-8.942 1.2102-13.348 0.50908-2.5083 0.91791-5.08 1.9579-7.4371l3.3085-1.4969z" stroke-width="965"/>
<path d="m56.701 204.53c-0.704 3.3069-0.49734 6.7379-0.34132 10.092 0.3204 5.0536 0.64635 10.118 1.3837 15.131 0.68146 3.3279 0.98849 6.7745 2.2087 9.966 0.1453 0.19909 0.29059 0.39818 0.43589 0.59727l-3.0212 1.7574c-0.12752-0.23992-0.25504-0.47984-0.38255-0.71976-0.96897-3.3431-1.1304-6.8531-1.775-10.263-0.72241-5.012-0.99135-10.08-1.4506-15.122-0.27771-3.2765-0.53382-6.5821-0.27192-9.8676l3.2143-1.5714z" stroke-width="965"/>
<path d="m58.306 232.38c-0.16872 1.7416 0.53525 3.4283 1.2219 4.9955 0.63777 1.513 1.7143 2.6835 2.812 3.8678 1.0372 1.1 2.2612 1.8569 3.6011 2.5274 1.3863 0.50673 2.8468 0.81786 4.2877 1.146 1.6452 0.34317 3.3311 0.36916 5.0042 0.41823l-2.7862 2.0145c-1.7057-0.029-3.428-0.0852-5.1023-0.43707-1.4597-0.35286-2.9564-0.63289-4.3423-1.2125-1.3559-0.71468-2.5994-1.4958-3.6336-2.6494-1.1343-1.204-2.2115-2.4332-2.8824-3.9684-0.65947-1.6167-1.2714-3.3096-1.3999-5.0613l3.2199-1.6406z" stroke-width="965"/>
<path d="m35.932 286.87c2.6414 0.18139 5.2779 0.0976 7.9154-0.0854 3.3776-0.37066 6.7058-1.1843 9.9624-2.1412 0.47087-0.16176 0.94175-0.32351 1.4126-0.48527l-2.5524 1.9841c-0.47061 0.15509-0.94122 0.31018-1.4118 0.46527-3.2611 0.89661-6.5688 1.693-9.9387 2.0415-2.7691 0.20611-5.5359 0.27747-8.3111 0.34508l2.9236-2.1242z" stroke-width="965"/>
<path d="m49.888 289.68c0.54017-2.8414 1.537-5.5656 2.318-8.3487 1.0612-3.4828 1.9414-7.0131 2.525-10.607 0.13349-1.2284 0.3835-2.4551 0.25132-3.6956-0.02037-0.19129-0.04257-0.38775-0.11707-0.56511-0.03157-0.0752-0.25797-0.11847-0.18667-0.15799 0.95278-0.52817 1.9748-0.9204 2.9622-1.3806-1.7579 2.5028-2.5045 5.6167-3.4438 8.4945-1.0454 3.3054-1.678 6.723-1.8961 10.18-4e-3 1.7385 0.74621 1.3376-3.2878 2.0323-0.25045 0.0431 0.08176-0.50166 0.12342-0.75236 0.24544-1.477 0.13759-0.85369 0.45541-2.5206 0.63695-3.3524 1.7599-6.5761 2.5386-9.8939 0.23816-1.3562 0.59463-2.7285 0.58416-4.1162l3.3419-1.5853c-0.72373 1.2825-0.48342 2.9671-1.0345 4.3154-0.85257 3.2786-1.9793 6.4867-2.5009 9.8444-0.46654 3.8175 0.80711 2.441-3.549 4.9716-0.05743 0.0334 0.1011-0.0862 0.15165-0.12926 0.05592-0.22539 0.11185-0.45078 0.16777-0.67618 0.57283-3.4943 1.0781-7.0098 2.1872-10.388 0.859-2.8348 1.6207-5.7112 2.7731-8.444 1.1942-0.60317 2.3332-1.331 3.5826-1.8095 0.12761-0.0489 0.15409 0.23433 0.17935 0.36862 0.05385 0.28629-0.02445 1.5598-0.03648 1.6903-0.07524 0.81506-0.27343 2.0318-0.39381 2.8239-0.63964 3.5959-1.5558 7.134-2.5405 10.65-0.29432 1.0908-0.55674 2.1903-0.86358 3.2777-0.45135 1.5995-1.1131 3.1544-1.0773 4.8504l-3.2143 1.5715z" stroke-width="965"/>
<path d="m34.42 283.09c2.2978-5.3e-4 4.5723 0.23449 6.8567 0.4557 1.5834 0.25312 3.1728 0.46047 4.7641 0.65652l-2.5703 1.8223c-1.6211-0.17804-3.2372-0.38634-4.8563-0.58138-2.369-0.20562-4.7384-0.4318-7.1179-0.22897l2.9236-2.1241z" stroke-width="965"/>
<path d="m56.386 280.42c1.3803 1.1366 2.6817 2.401 4.2442 3.2846l-2.896 1.8801c-1.5591-0.9237-2.8014-2.2805-4.3591-3.2165l3.0109-1.9481z" stroke-width="965"/>
<path d="m54.152 280.07c2.8372 0.13599 5.6773 0.069 8.5132 0.23136 3.9483 0.33414 7.9058 0.50831 11.866 0.59813 3.4847 0.14215 7.0014 0.15246 10.327-0.99844l-2.5898 2.0074c-3.3192 0.98249-6.7797 0.90045-10.211 0.7785-3.9793-0.11847-7.9561-0.29169-11.928-0.56282-2.9563-0.12989-5.9176-0.0554-8.8743 0.0505l2.8968-2.1046z" stroke-width="965"/>
<path d="m71.394 246.54c-0.51853-0.27339-2.3115-0.84194-2.1481-1.721 0.02714-0.14593 0.15048-0.2559 0.22572-0.38385 1.2017-0.64458 2.3739-1.3476 3.6052-1.9337 0.56667-0.26976 3.9323-0.16415 4.6832-0.16134 2.337-0.0102 4.4451 0.70927 6.5319 1.6766 1.4735 0.77528 2.7372 1.8801 4.0239 2.9235 1.3904 1.229 0.554 0.92638-3.0028 2.12-0.01241 4e-3 -1.2491-0.94694-1.6474-1.1877-1.6834-1.0812-3.4355-2.0527-5.2023-2.9923-0.72464-0.39993-1.3977-0.88328-1.9044-1.5456-0.13326-0.17417-0.41629-0.51573-0.22284-0.61901 1.1648-0.62182 2.4064-1.0874 3.6096-1.6311 2.7176 1.8585 5.0433 4.2045 7.2835 6.5981 4.1806 4.5615 7.675 9.6758 11.302 14.671 3.3374 4.4536 6.6143 8.9511 9.8996 13.443 1.6221 1.919 3.3982 4.4425 6.1176 4.7783 0.39283 0.0485 0.79162 5.2e-4 1.1874 7.9e-4l-2.7004 1.9512c-0.41793-0.0211-0.84287 0.0158-1.2538-0.0632-2.6627-0.51226-4.3681-3.2092-5.8801-5.1744-3.1656-4.5646-6.2239-9.2015-9.5941-13.621-3.6217-5.0015-7.1651-10.083-11.523-14.49-2.3575-2.2771-4.8075-4.6743-7.8317-6.0392 0.94262-0.6152 1.9237-1.1752 2.8279-1.8456 0.06574-0.0487-0.18218-0.14295-0.23262-0.0785-0.06268 0.0801 0.01357 0.20861 0.05992 0.29912 0.08914 0.17414 0.2049 0.33654 0.3386 0.47935 0.4382 0.46808 0.82855 0.67412 1.3658 1.0262 1.7639 0.97743 3.5468 1.9172 5.2716 2.9615 0.15917 0.0915 1.8668 1.0698 1.8043 1.1313-3.8009 3.7452-2.2041 2.837-3.0476 1.6926-1.2502-1.0269-2.4505-2.1499-3.8886-2.9115-2.0283-0.98829-4.1094-1.5947-6.3918-1.5865-1.0889 0.0308-2.187 0.0318-3.2725 0.13333-1.6168 0.1513-3.6564 1.1976 1.0743-1.3544-1.3733 0.18735 1.1603 1.531 1.4949 1.3897l-2.9623 2.0641z" stroke-width="965"/>
<path d="m81.128 267.09c0.63803 2.4453 0.83431 4.9693 1.0366 7.479 0.07059 2.3231 0.52784 4.6081 0.80353 6.9108 0.52711 2.2851 1.0669 1.734-2.941 2.9715-0.01378 4e-3 -0.11171-0.43786-0.23914-0.99933-0.2182-1.5051-0.37624-2.9632-0.81298-4.4228-0.64076-1.8875-1.2475-3.7705-1.5585-5.7439-0.29192-1.6051-0.18656-3.2514-0.42503-4.8598-0.01606-0.0308-0.07934-0.077-0.04818-0.0923 1.1065-0.54409 2.184-1.1805 3.364-1.5382 2.64e-4 -9e-5 0.10427 0.36116 0.19846 1.2144 0.17233 1.561-0.04331 0.33285 0.31709 2.031 0.7599 2.701 1.0209 5.4945 1.4274 8.2596 0.5192 1.8684 0.12248 4.3467 1.561 5.8177 0.19666 0.10086 0.37742 0.24209 0.59 0.30258 1.2167 0.34627 3.6568-0.10172 4.9506-0.1968 2.4396-0.0705 4.8406 0.3112 7.24 0.68824 1.8193 0.17116 3.7656 0.74627 5.5348 0.0918-0.86143 0.46887-1.692 0.99956-2.5843 1.4066-0.16113 0.0735 0.25911-0.24539 0.35913-0.39154 0.51002-0.74528 0.32932-1.6888 0.27442-2.5298-0.37342-2.271-0.9681-4.4921-1.3696-6.7598-0.34302-1.9847-0.33728-3.9785-0.96241-5.9002-0.09649-0.19801-0.19297-0.39602-0.28946-0.59403l3.079-1.7274c0.0799 0.21903 0.1599 0.43806 0.23985 0.65709 0.15308 0.48072 0.42445 1.267 0.49584 1.765 0.20044 1.398 0.0363 2.8562 0.36418 4.2448 0.37837 2.2693 1.0344 4.4595 1.5327 6.7024 0.4491 3.4962-0.28692 3.3134-3.9399 5.2864-1.814 0.39403-3.6856-0.12172-5.4997-0.31119-2.3674-0.42037-4.743-0.7628-7.1575-0.64528-1.4352 0.12921-3.857 0.65697-5.2184 0.13065-0.23635-0.0914-0.42821-0.27106-0.64231-0.40659-0.16607-0.20905-0.37406-0.39079-0.49823-0.62714-0.8626-1.642-0.44496-3.7419-0.9484-5.478-0.40363-2.7449-0.59519-5.5357-1.4992-8.1832-0.24016-0.82327-0.78877-3.0327-0.77708-3.0419 0.98143-0.7714 2.1049-1.3439 3.1832-1.9728 0.04222-0.0246-0.02782 0.0937-0.04174 0.14056-0.14662 1.6391 0.02262 3.2942 0.19621 4.9243 0.32462 1.9536 0.88915 3.8196 1.5753 5.6753 0.07942 0.22731 0.49009 1.3725 0.54337 1.6381 0.18018 0.89816 0.07613 1.8623 0.38906 2.7425 0.05186 0.17365 0.09663 0.34957 0.15557 0.52095 0.0464 0.13491 0.27124 0.30748 0.1601 0.39695-3.9714 3.1971-2.8596 2.6698-3.3244 0.4058-0.20508-2.3351-0.56716-4.6564-0.65239-7.0007-0.16349-2.4376-0.34569-4.9429-1.2853-7.2255l3.144-1.7557z" stroke-width="965"/>
<path d="m99.343 269.23c1.1449 1.9447 2.6359 3.5999 4.2107 5.1994 0.80932 0.92896 1.8306 1.6121 2.8248 2.3205l-2.8193 1.7902c-0.99631-0.7298-2.0138-1.4424-2.8269-2.3855-1.5869-1.6231-3.072-3.3164-4.4971-5.0804l3.1078-1.8443z" stroke-width="965"/>
</g>
<g transform="translate(.84175 8.1534)">
<ellipse cx="149.53" cy="202.06" rx="150.38" ry="11.717" fill-opacity=".14646"/>
</g>
<g transform="translate(.84175 8.1534)">
<path d="m191.69 23.108c1.3352-9.1417 3.8952-12.069 16.379-18.931 3.6983-2.0329-3.8159 7.1067 1.0982 7.1231 11.067 0.03689 35.48-6.1822 40.091-6.3242 17.601-1.4722 33.011-2.4835 46.628-6.6062l20.245-6.5229s-40.751 38.383-47.119 42.685c-39.331 21.306 7.2494 10.485 7.2494 10.485-13.118 8.7783-35.237 18.483-56.849 28.911z" fill="#f35320"/>
<path d="m193.02 13.966c4.9384-1.324 49.559-18.95 45.678-16.531-16.235 10.115-18.316 14.06-13.306 14.084l41.852-1.0904c21.685-0.56799 22.494-6.2741 30.834-9.1298l-30.779 23.028c-6.9139 4.297-13.498 10.808-17.249 20.494-0.21894 3.5215 0 0 24.226-7.8692 0 0-7.5168 6.1577-15.612 12.593-4.6479 3.6947-9.4866 7.481-13.203 10.246-6.4067 4.7666 0 0 12.798 1.943l-38.118 15.975c-8.2897 2.8305-26.13 1.6119-29.802 0.29249-5.294-2.7782-10.437-5.7614-15.081-11.058-4.3104-4.2403-6.8046-9.5458-8.0151-16.016-0.0139-6.0255 1.0386-12.759 5.5502-21.788 4.0911-7.3225 18.733-21.292 18.108-18.85-3.5317 6.0468-2.3499 6.6222 2.121 3.6779z" fill="#f7b653"/>
</g>
<g transform="translate(.84175 8.1534)" stroke-linecap="round" stroke-linejoin="round">
<path d="m56.009 190.88c13.464 5.6832 28.847 2.6334 42.79 0.37223l33.683 2.5464c15.425 0.0413 16.983-3.3114 21.745-5.8799-11.77-0.32704-21.044-2.2619-21.044-2.2619-5.4353-1.0044-9.1724-2.8855-11.85-5.3136-8.9416-8.8252-10.561-14.3-15.518-20.806-4.6981-5.2275-14.234-8.7044-20.752-9.4989-8.6705-0.34538-11.944-0.41098-18.671-1.3489-4.7839-3.3905-5.6924-3.7715-7.3254-8.5816-1.4965-10.921-0.02724-22.82 0.72921-33.339l0.44125-1.9939c5.0527 4.1263 14.942 2.5938 20.114-5.7432 2.6983-4.057 0.48104-9.3068-3.9731-12.828-5.0688-2.3103-10.204-1.0369-18.515 0.30202-7.503 2.4006-10.693 4.5824-12.175 10.491-9.2838 32.418-13.914 69.382-11.162 101.81 8.3761 3.1408 11.575 2.4023 19.951 0.60923 0.69031-5.4425 1.3806-11.82 2.0709-19.778" fill="#7c6990" stroke="#000" stroke-width="2.2728"/>
<ellipse cx="64.4" cy="91.231" rx="1.8121" ry="1.6704" stroke-width="2.3467"/>
<path d="m86.576 180.17c0.22326 7.0713 0.30222 14.217 2.4161 20.312 7.2261 1.5527 11.264 0.74833 17.578 0.0783 1.502-5.4371 2.3474-9.7403 2.3569-16.689" fill="#7c6990" stroke="#000" stroke-width="2.2728"/>
<path d="m239.8 44.253c0.52975 14.725-3.0214 22.079-23.885 30.201-6.4294 2.5031-24.553 1.3469-29.789-2.7278-7.108-5.5316-19.531-16.995-15.085-25.962 6.4901-13.09 15.983-31.951 30.719-30.201 14.869 1.7653 37.548 14.982 38.041 28.69z" fill="#858585" stroke="#000" stroke-width="2.2728"/>
</g>
<g transform="translate(.84175 8.1534)" fill-opacity=".09596" filter="url(#a)">
<path d="m219.41 73.929c-2.7612 2.9129-5.728 1.5571-13.007 1.5571-7.2787 0-9.5552 1.0886-13.352-1.5571-7.4144-5.1666 5.9006-13.985 13.179-13.985 7.2787 6e-6 19.082 7.7587 13.179 13.985z"/>
<path transform="matrix(.34169 0 0 .26458 197.27 57.835)" d="m4.7225-119.37c-5.8049 12.362-21.399 16.997-21.399 16.997-20.352 6.2907-40.606 18.526-34.531 3.7114 12.889-31.432 13.583-48.994 32.511-39.22 12.716 6.566 28.066 8.6161 23.419 18.512z" filter="url(#a)"/>
<path transform="matrix(.34169 0 0 .26458 194.68 59.171)" d="m48.664-60.785c-8.0812 11.009-3.1268 26.593-24.429 26.593-21.302 0-17.863-3.967-28.975-13.966-21.7-19.527 7.1675-44.776 28.47-44.776 21.302 2.2e-5 42.208 8.6161 24.934 32.149z" filter="url(#a)"/>
<path transform="matrix(.34169 0 0 .26458 196.42 35.859)" d="m-43.261 73.379c-3.7102 13.143-7.2567 20.532-7.2567 20.532-18.468 10.617-9.8796-5.7123-19.884-17.502-16.57-19.527-7.4254-29.407 12.307-24.068 11.685 3.1615 19.48 4.5755 14.833 21.037z" filter="url(#c)"/>
<path transform="matrix(.34169 0 0 .26458 195.07 59.76)" d="m122.5-50.685c-3.7102 13.143-7.2567 20.532-7.2567 20.532-11.397 1.5255-9.3975-7.1172-13.318-21.542-5.032-18.517 6.2466-24.573 6.2466-24.573 11.567-3.5224 18.975 9.1212 14.328 25.583z" filter="url(#b)"/>
</g>
</svg>
